<?xml version="1.0" encoding="UTF-8" standalone="no"?>
<!-- Created with Inkscape (http://www.inkscape.org/) -->

<svg
   width="22.445581cm"
   height="10.102886cm"
   viewBox="0 0 224.45583 101.02886"
   version="1.1"
   id="svg8"
   inkscape:version="1.1.2 (0a00cf5339, 2022-02-04)"
   sodipodi:docname="clock-redo.svg"
   inkscape:export-filename="C:\Users\John.Tait\Desktop\GURPS\over-the-edge-solo\centipede-logo.png"
   inkscape:export-xdpi="300"
   inkscape:export-ydpi="300"
   xmlns:inkscape="http://www.inkscape.org/namespaces/inkscape"
   xmlns:sodipodi="http://sodipodi.sourceforge.net/DTD/sodipodi-0.dtd"
   xmlns="http://www.w3.org/2000/svg"
   xmlns:svg="http://www.w3.org/2000/svg"
   xmlns:rdf="http://www.w3.org/1999/02/22-rdf-syntax-ns#"
   xmlns:cc="http://creativecommons.org/ns#"
   xmlns:dc="http://purl.org/dc/elements/1.1/">
  <defs
     id="defs2" />
  <sodipodi:namedview
     id="base"
     pagecolor="#ffffff"
     bordercolor="#666666"
     borderopacity="1.0"
     inkscape:pageopacity="0.0"
     inkscape:pageshadow="2"
     inkscape:zoom="1.5167106"
     inkscape:cx="397.57091"
     inkscape:cy="242.63034"
     inkscape:document-units="mm"
     inkscape:current-layer="layer1"
     showgrid="false"
     units="mm"
     inkscape:window-width="1920"
     inkscape:window-height="1031"
     inkscape:window-x="0"
     inkscape:window-y="25"
     inkscape:window-maximized="1"
     inkscape:snap-global="false"
     showguides="true"
     inkscape:guide-bbox="true"
     inkscape:pagecheckerboard="1">
    <inkscape:grid
       type="xygrid"
       id="grid924"
       originx="-1023.9276"
       originy="241.46822" />
    <sodipodi:guide
       position="-1673.2222,393.86233"
       orientation="1,0"
       id="guide1109"
       inkscape:locked="false" />
    <sodipodi:guide
       position="-587.36721,328.79119"
       orientation="0,1"
       id="guide2476"
       inkscape:locked="false" />
    <sodipodi:guide
       position="-605.79925,341.42933"
       orientation="0,1"
       id="guide1832"
       inkscape:locked="false" />
    <sodipodi:guide
       position="-568.96617,340.93823"
       orientation="0,1"
       id="guide1919"
       inkscape:locked="false" />
    <sodipodi:guide
       position="-143.78648,297.12744"
       orientation="0,1"
       id="guide2095"
       inkscape:locked="false" />
    <sodipodi:guide
       position="-687.81275,456.14656"
       orientation="0,1"
       id="guide2112"
       inkscape:locked="false" />
    <sodipodi:guide
       position="-607.71542,402.61582"
       orientation="1,0"
       id="guide2459"
       inkscape:locked="false" />
    <sodipodi:guide
       position="-456.44846,397.12287"
       orientation="1,0"
       id="guide2461"
       inkscape:locked="false" />
    <sodipodi:guide
       position="275.51606,31.158257"
       orientation="0,1"
       id="guide4603"
       inkscape:locked="false" />
  </sodipodi:namedview>
  <metadata
     id="metadata5">
    <rdf:RDF>
      <cc:Work
         rdf:about="">
        <dc:format>image/svg+xml</dc:format>
        <dc:type
           rdf:resource="http://purl.org/dc/dcmitype/StillImage" />
      </cc:Work>
    </rdf:RDF>
  </metadata>
  <g
     inkscape:label="Layer 1"
     inkscape:groupmode="layer"
     id="layer1"
     transform="translate(-1023.9268,-434.65857)">
    <path
       id="path872"
       style="fill:#1a1a1a;stroke:none;stroke-width:5.66929;stroke-linecap:butt;stroke-linejoin:miter;stroke-miterlimit:4;stroke-dasharray:none;stroke-opacity:1"
       d="M 337.99023,5.2324219 C 286.23707,111.03853 253.91651,64.425547 160.56445,18.585938 174.33769,126.39435 144.45481,101.09398 50.722656,85.650391 151.93384,174.31764 129.83185,163.76893 9.0019531,167.91602 128.59131,237.72815 123.52081,234.41488 32.423828,329.24414 c 78.348992,-11.40372 95.564482,-33.66696 106.003902,45.28711 93.52585,-42.74018 116.32222,-77.48655 180.65625,-0.0566 40.11457,-82.1941 34.93807,-86.33813 87.66797,-13.53125 53.89,-73.53749 50.45172,-73.3117 102.40625,-3.02539 49.41317,-78.26397 46.55796,-63.85474 84.29492,12.01367 35.02572,-97.30242 83.52116,-36.38108 158.74219,1.52734 C 735.4118,261.41553 745.21447,266.01887 847.56641,246.77539 727.1561,213.17834 706.4692,225.59856 813.07031,149.67773 702.39227,142.20688 701.12724,148.98381 770.13477,64.289062 670.95857,109.08197 672.59541,112.02722 643.45703,12.136719 559.35087,108.64563 561.16777,148.67993 524.29883,15.255859 484.10067,115.46748 491.08785,128.56871 443.32031,28.181641 399.01589,141.10109 390.54957,88.159909 337.99023,5.2324219 Z M 630.69531,92.476562 c 2.79413,0.01829 5.53521,0.442759 7.11524,1.164063 2.06211,0.936 4.95782,3.893665 6.82226,6.966795 1.4298,2.35718 1.57944,3.1605 1.86328,10.0586 0.1663,4.12376 -2.9e-4,8.4018 -0.24218,9.50781 -0.30615,1.10638 -0.52539,3.15607 -0.49024,4.55469 0,1.3991 -0.35115,3.22449 -0.85156,4.05859 -0.5023,0.83444 -1.00273,2.31394 -1.11914,3.28906 -0.30614,2.68528 -4.35836,22.34297 -4.95703,24.05078 -0.70035,2.00946 -2.75132,10.65239 -3.71094,15.66797 -0.4902,2.54272 -0.56086,4.25615 -0.19727,4.58399 0.36284,0.32768 2.52147,-1.91335 5.77149,-5.99414 9.51383,-11.94894 16.26837,-17.10837 24.45898,-18.6836 4.06035,-0.78074 4.66826,-0.74981 10.17578,0.52344 8.33537,1.9279 13.74097,9.61235 14.29883,20.33203 0.27969,5.31039 -0.7474,9.79441 -3.67578,16.08398 -3.74967,8.06193 -8.7776,12.92269 -16.49805,15.95508 -3.71338,1.45837 -4.81869,1.65367 -7.90429,1.39258 -7.00271,-0.59168 -10.86294,-3.01262 -15.69922,-9.8457 -2.40907,-3.40471 -3.34857,-3.82865 -4.83203,-2.18164 -3.02514,3.35871 -4.07267,12.92365 -2.19727,20.0625 3.40082,12.94068 11.13733,25.22032 22.35156,35.47656 11.97166,10.94922 19.45107,11.44135 36.23633,14.53516 4.31925,0.79706 9.52464,1.76646 11.56446,2.15625 6.78311,1.2952 12.66989,6.02009 14.87109,11.93554 1.39124,3.73973 1.05106,10.06394 -0.78125,14.5586 -2.0417,5.0002 -4.31021,7.85908 -8.50586,10.71875 -5.93866,4.04705 -15.6938,6.36833 -23.43359,5.57812 h -0.002 c -1.92644,-0.19854 1.71129,-0.61193 0.55078,-0.91992 -29.55477,-9.47051 -44.89425,-24.8234 -58.77343,-53.23438 -0.44372,-0.94532 -1.26977,-2.75364 -1.84766,-4.01562 -0.58356,-1.26206 -1.33468,-2.80765 -1.68164,-3.43555 -0.3515,-0.62789 -1.48394,-3.081 -2.53125,-5.44922 -3.20353,-7.23983 -4.47898,-5.72205 -3.93359,4.67774 0.39533,7.66533 -0.96918,14.61986 -3.55664,18.04101 -0.74722,0.98385 -3.05653,2.74231 -5.13868,3.90625 -3.54444,1.98123 -4.17964,2.13703 -9.96875,2.44922 -10.07773,0.53919 -15.42943,-1.26151 -19.75586,-6.66601 -6.94752,-15.17031 5.44956,-35.34923 9.25782,-43.87891 3.97379,-8.87769 5.39374,-12.82993 7.875,-21.9375 3.78935,-13.90685 6.53073,-31.81948 6.10742,-39.91406 -0.26835,-5.05935 -1.10983,-7.52863 -3.52344,-10.28516 -1.63049,-1.86232 -6.76147,-4.11106 -9.11914,-3.99609 -1.69398,0.0816 -5.14347,-2.46069 -6.50977,-4.80078 -0.84055,-1.43902 -1.17582,-8.31311 -0.4082,-8.35352 0.27969,-0.0113 0.48009,-0.50433 0.44531,-1.08789 0,-1.00369 3.36843,-7.96894 5.25782,-10.70312 9.11584,-13.19819 25.29664,-25.92383 34.05078,-26.781254 0.90189,-0.08844 1.84011,-0.127191 2.77148,-0.121094 z m -389.89062,2.4375 c 2.5504,0.0046 5.00137,0.234567 7.03906,0.707032 3.48624,0.80829 10.7933,3.820477 11.56055,4.765626 0.15496,0.19086 1.3232,1.05254 2.59765,1.91601 3.5486,2.40571 8.20116,8.35751 11.11328,14.2168 5.67874,11.4234 7.09091,29.61929 3.69727,47.65039 -2.00164,10.63714 -4.88073,19.56848 -8.45312,26.2207 -0.66671,1.2406 -1.83936,3.52544 -2.60547,5.07618 -1.29487,2.62065 -4.47492,7.58534 -6.76758,10.5664 -1.63125,2.12187 -9.70518,10.01563 -10.24414,10.01563 -0.27213,0 -1.82163,0.88797 -3.4336,1.97265 -3.5176,2.36742 -11.1176,4.79634 -14.97461,4.78711 -5.13033,-0.0151 -11.6643,-2.24139 -15.93554,-5.43554 -2.33613,-1.74683 -6.29335,-6.21377 -6.30469,-7.11719 0,-0.23924 -0.63806,-1.39116 -1.41211,-2.56055 -2.59351,-3.91933 -2.51002,-13.80021 0.16211,-19.70508 4.33285,-9.55634 13.51918,-15.4157 22.98047,-14.65625 4.69871,0.3772 5.89062,-0.69736 5.89062,-5.31054 0,-2.55205 -0.29851,-3.53464 -1.64062,-5.38672 -3.46129,-4.77816 -11.36058,-6.46446 -17.08203,-3.64649 -2.52397,1.24336 -7.29274,4.73745 -9.74414,7.14063 -2.53871,2.48901 -10.3044,13.5056 -12.41602,17.61523 -1.24082,2.41387 -2.66119,4.94754 -3.1582,5.62891 -0.81903,1.12263 -1.88313,3.64418 -5.90039,13.98633 -2.91591,7.5064 -5.32032,19.62542 -5.32032,26.8125 10e-6,6.98986 3.20273,15.1539 7.41993,18.91211 6.6463,5.92342 16.9377,7.99645 25.34375,5.10742 3.45335,-1.18677 10.75093,-5.61697 14.04101,-8.52539 3.09544,-2.73627 8.35356,-5.96365 11.5586,-7.0918 8.82519,-3.10632 18.68682,1.35864 21.46289,9.7168 1.02727,3.09328 1.15627,10.22232 0.25976,14.23047 -2.78513,12.42693 -12.67644,25.99025 -26.51367,36.35742 -7.24838,5.43016 -16.90324,9.75366 -25.30664,11.33203 -4.20862,0.79041 -16.0625,1.15613 -19.80273,0.61133 h -0.002 c -2.95254,-0.43088 -8.34808,-1.62652 -13.25,-2.93555 -2.99943,-0.80088 -9.47004,-4.06395 -12.96875,-6.54101 -5.73165,-4.05759 -12.88227,-12.61578 -15.67383,-18.75782 -4.59515,-10.11118 -6.8744,-24.65244 -6.05273,-38.6289 0.5125,-8.72871 2.86594,-23.07947 4.57617,-27.9043 0.60624,-1.71088 1.8697,-6.10176 2.80664,-9.75976 1.5394,-6.01293 5.52686,-17.64187 7.60938,-22.19336 0.44825,-0.97731 0.8125,-2.07165 0.8125,-2.43164 0,-0.36019 0.65457,-2.09912 1.45508,-3.86329 0.8005,-1.76413 1.67053,-3.71368 1.93359,-4.33398 2.85808,-6.73716 10.13435,-20.85121 14.24609,-27.63281 1.296,-2.13725 6.89737,-10.70638 7.55274,-11.55469 8.04661,-10.41422 12.24135,-15.18396 17.13281,-19.47656 10.07244,-8.84104 19.55066,-14.64785 29.57813,-18.12305 3.3555,-1.162937 7.88213,-1.781108 12.13281,-1.773438 z m 109.56054,9.783208 c 2.04097,0.0194 3.88069,0.39729 5.55469,1.1289 2.90684,1.27109 5.76911,4.64452 6.83985,8.06445 0.94488,3.01973 1.03833,9.93087 0.16601,12.6504 -0.37417,1.16881 -0.85235,3.13758 -1.03906,4.375 -0.50192,3.14982 -2.3657,9.97221 -3.46289,12.69336 -0.50192,1.25679 -1.15479,3.33094 -1.4375,4.60937 -0.27969,1.27865 -1.2365,4.14008 -2.11524,6.35937 -0.87533,2.21946 -2.11214,5.72721 -2.74218,7.79688 -0.61833,2.0699 -2.74918,8.04839 -4.70508,13.28516 -5.6674,15.16029 -7.1244,19.36958 -9.91406,28.59961 -6.08958,20.14718 -6.81946,23.57087 -5.60547,26.32421 1.11987,2.53081 3.33805,3.43877 7.17578,2.92774 3.15099,-0.419 6.52826,0.24913 8.03515,1.60742 1.35345,1.21508 2.23699,4.7516 2.07032,8.28516 -0.17764,3.69101 -2.853,11.35416 -4.70117,13.45312 -0.54879,0.6209 -1.71262,2.39629 -2.58985,3.94922 -1.47893,2.61192 -10.20299,11.19891 -14.47461,14.24219 -1.00346,0.71308 -4.33267,2.38311 -7.4043,3.71094 -5.33441,2.30679 -5.85087,2.41083 -11.5625,2.34375 -4.95986,-0.0586 -6.5624,-0.31154 -9.41406,-1.47461 h -0.0176 c -1.89089,-0.77148 -4.20947,-2.00342 -5.15625,-2.73438 -5.29285,-4.09024 -8.60307,-11.27846 -8.26367,-17.94922 0.12851,-2.5838 1.67528,-8.69838 2.97656,-11.78515 5.17229,-12.27341 6.53338,-15.30465 8.7754,-19.55078 4.81285,-9.1174 8.25865,-16.32639 12.3496,-25.8418 1.36063,-3.16555 2.73413,-6.20221 3.05274,-6.74805 0.3137,-0.54614 0.6078,-1.38613 0.63086,-1.86719 0,-0.48083 0.77008,-2.76036 1.67187,-5.0664 2.02205,-5.19508 3.16789,-10.50307 3.42188,-15.85352 0.38324,-8.04555 -1.5389,-12.20545 -7.00977,-15.16992 -1.99219,-1.07955 -4.66745,-2.20351 -5.94531,-2.49805 -1.6679,-0.38392 -2.99175,-1.29498 -4.69141,-3.22265 -2.19741,-2.494 -2.35815,-2.91683 -2.21679,-5.88282 0.36283,-7.67769 7.59664,-16.94394 21.25586,-27.22656 6.75288,-5.08331 10.80525,-7.41965 18.4414,-10.63281 4.68803,-1.97265 8.64918,-2.93473 12.05078,-2.90234 z m 81.26563,45.58593 c 3.61348,-0.0269 7.46217,0.23221 9.33398,0.72461 3.60189,0.94764 10.41741,4.38414 12.46289,6.28321 4.93115,4.57576 8.53978,10.77806 10.32032,17.74218 1.06242,4.15314 1.05033,19.84073 0,25.82618 -1.52089,8.5303 -4.49821,17.29515 -9.36133,27.55468 -2.27339,4.79743 -3.20473,6.37945 -6.66602,11.32617 -1.53222,2.19024 -2.78711,4.20586 -2.78711,4.47852 0,0.27326 -0.33526,0.62528 -0.75781,0.78516 -0.4199,0.15874 -1.53552,1.44166 -2.49023,2.84961 -0.95698,1.40798 -2.09421,2.78386 -2.52735,3.05859 -0.43162,0.27439 -2.5641,2.25528 -4.73242,4.40039 -5.2732,5.21647 -9.14295,7.99605 -15.45703,11.10547 -7.51672,3.70242 -11.91833,4.86505 -19.50195,5.14844 -5.62734,0.21014 -6.97674,0.0578 -10.5586,-1.14453 h -0.006 c -7.96157,-2.68506 -11.84785,-5.53088 -15.87304,-11.62696 -3.55049,-5.37498 -5.182,-9.27941 -6.35742,-15.20117 -3.0429,-15.33203 -0.26972,-30.68898 8.74218,-48.33008 4.76296,-9.32598 7.98819,-14.24193 13.84571,-21.10937 4.79886,-5.62666 5.02001,-5.8377 12.56054,-12.00196 6.87043,-5.61535 16.87529,-10.40235 24.03711,-11.5 1.52178,-0.23326 3.60535,-0.353 5.77344,-0.36914 z m 113.29492,0.58789 c 4.51739,0.0621 8.88857,0.96588 12.96875,2.79883 24.9532,12.23702 14.48644,50.9387 -10.24414,57.02344 -3.29008,0.71781 -4.5193,0.73336 -7.29687,0.0937 -5.8201,-1.34154 -8.214,-3.6247 -9.07422,-8.6582 -1.01556,-5.96013 -1.2736,-6.60995 -3.11914,-8.09961 -3.38193,-2.72346 -8.07507,-1.35026 -11.21094,3.28125 -0.78199,1.15188 -1.3939,2.53108 -1.36328,3.06445 0,0.53337 -0.17766,0.98367 -0.45508,1 -0.63043,0.034 -2.4164,5.25857 -3.12695,9.13281 -0.6773,3.69377 0.27996,9.39361 2.14062,12.66211 1.14331,2.00995 2.16204,2.87908 4.74609,4.04102 3.0206,1.35825 3.66283,1.43371 7.75,0.9082 4.74974,-0.61039 6.13731,-1.21341 17.54883,-7.64844 7.22495,-4.07421 9.47638,-4.51717 13.81641,-2.71093 4.86539,2.02548 6.98908,8.00224 5.23047,14.71679 -1.62595,6.20825 -11.95961,20.42051 -18.26953,25.125 -1.24082,0.92432 -2.75604,2.17951 -3.36719,2.78906 -1.01556,1.01069 -6.81336,4.33805 -13.375,7.67579 -5.54117,2.81975 -12.86155,4.19147 -20.34766,3.8125 h -0.008 c -7.39465,-0.3738 -17.09715,-6.4622 -21.75391,-13.64844 -5.07326,-7.82914 -7.59108,-16.05203 -8.17578,-26.69922 -0.65348,-11.82508 0.47979,-16.76348 7.51953,-32.94727 12.52845,-28.78932 37.70122,-48.01229 59.4668,-47.71289 z m -128.16016,47.38282 c -5.46216,0.0113 -6.52486,0.18829 -9.38671,1.57617 -3.7115,1.80019 -6.28392,4.01888 -7.07422,6.09765 -1.40372,3.69415 0.19471,8.98811 3.3457,11.05079 4.1057,2.68996 12.25339,3.20203 18.84375,1.18554 7.81455,-2.39119 11.38018,-9.97914 7.11914,-15.14844 -3.13965,-3.80967 -5.74403,-4.77521 -12.84766,-4.76171 z"
       transform="matrix(0.26458333,0,0,0.26458333,1023.9268,434.65857)"
       sodipodi:nodetypes="ccccccccccccccccccscccccccccccccccsccsccccccccccccccccscccccscccccssscsccccccsccccccssccccccsccsccccscccccccccssccccsssccccccccccccccccccccccccccccccsccccsssccccccscccccccccccccsssccccccccccscscscccccsccscccccccccccc" />
    <path
       style="opacity:1;fill:#c0e2ca;fill-opacity:1;stroke:none;stroke-width:0.0901469;stroke-linecap:butt;stroke-linejoin:round;stroke-miterlimit:4;stroke-dasharray:none;stroke-dashoffset:0;stroke-opacity:1;paint-order:stroke fill markers"
       d=""
       id="path2278"
       inkscape:connector-curvature="0"
       transform="matrix(0.26458333,0,0,0.26458333,380.33566,317.42618)" />
    <path
       style="opacity:1;fill:#c0e2ca;fill-opacity:1;stroke:none;stroke-width:0.0901469;stroke-linecap:butt;stroke-linejoin:round;stroke-miterlimit:4;stroke-dasharray:none;stroke-dashoffset:0;stroke-opacity:1;paint-order:stroke fill markers"
       d=""
       id="path2318"
       inkscape:connector-curvature="0"
       transform="matrix(0.26458333,0,0,0.26458333,380.33566,317.42618)" />
  </g>
</svg>
