<?xml version="1.0" encoding="UTF-8" standalone="no"?>
<!-- Created with Inkscape (http://www.inkscape.org/) -->

<svg
   width="22.445581cm"
   height="10.102886cm"
   viewBox="0 0 224.45583 101.02886"
   version="1.1"
   id="svg8"
   inkscape:version="1.2.2 (b0a8486541, 2022-12-01)"
   sodipodi:docname="echoes.svg"
   inkscape:export-filename="C:\Users\John.Tait\Desktop\GURPS\over-the-edge-solo\centipede-logo.png"
   inkscape:export-xdpi="300"
   inkscape:export-ydpi="300"
   xml:space="preserve"
   xmlns:inkscape="http://www.inkscape.org/namespaces/inkscape"
   xmlns:sodipodi="http://sodipodi.sourceforge.net/DTD/sodipodi-0.dtd"
   xmlns="http://www.w3.org/2000/svg"
   xmlns:svg="http://www.w3.org/2000/svg"
   xmlns:rdf="http://www.w3.org/1999/02/22-rdf-syntax-ns#"
   xmlns:cc="http://creativecommons.org/ns#"
   xmlns:dc="http://purl.org/dc/elements/1.1/"><defs
     id="defs2" /><sodipodi:namedview
     id="base"
     pagecolor="#ffffff"
     bordercolor="#666666"
     borderopacity="1.0"
     inkscape:pageopacity="0.0"
     inkscape:pageshadow="2"
     inkscape:zoom="1.5167106"
     inkscape:cx="134.17194"
     inkscape:cy="225.15831"
     inkscape:document-units="mm"
     inkscape:current-layer="layer1"
     showgrid="false"
     units="mm"
     inkscape:window-width="1920"
     inkscape:window-height="1033"
     inkscape:window-x="0"
     inkscape:window-y="24"
     inkscape:window-maximized="1"
     inkscape:snap-global="false"
     showguides="true"
     inkscape:guide-bbox="true"
     inkscape:pagecheckerboard="1"
     inkscape:showpageshadow="0"
     inkscape:deskcolor="#d1d1d1"><inkscape:grid
       type="xygrid"
       id="grid924"
       originx="-1023.9276"
       originy="241.46822" /><sodipodi:guide
       position="-1673.2222,393.86233"
       orientation="1,0"
       id="guide1109"
       inkscape:locked="false" /><sodipodi:guide
       position="-587.36721,328.79119"
       orientation="0,1"
       id="guide2476"
       inkscape:locked="false" /><sodipodi:guide
       position="-605.79925,341.42933"
       orientation="0,1"
       id="guide1832"
       inkscape:locked="false" /><sodipodi:guide
       position="-568.96617,340.93823"
       orientation="0,1"
       id="guide1919"
       inkscape:locked="false" /><sodipodi:guide
       position="-143.78648,297.12744"
       orientation="0,1"
       id="guide2095"
       inkscape:locked="false" /><sodipodi:guide
       position="-687.81275,456.14656"
       orientation="0,1"
       id="guide2112"
       inkscape:locked="false" /><sodipodi:guide
       position="-607.71542,402.61582"
       orientation="1,0"
       id="guide2459"
       inkscape:locked="false" /><sodipodi:guide
       position="-456.44846,397.12287"
       orientation="1,0"
       id="guide2461"
       inkscape:locked="false" /><sodipodi:guide
       position="275.51606,31.158257"
       orientation="0,1"
       id="guide4603"
       inkscape:locked="false" /></sodipodi:namedview><metadata
     id="metadata5"><rdf:RDF><cc:Work
         rdf:about=""><dc:format>image/svg+xml</dc:format><dc:type
           rdf:resource="http://purl.org/dc/dcmitype/StillImage" /></cc:Work></rdf:RDF></metadata><g
     inkscape:label="Layer 1"
     inkscape:groupmode="layer"
     id="layer1"
     transform="translate(-1023.9268,-434.65857)"><path
       style="opacity:1;fill:#c0e2ca;fill-opacity:1;stroke:none;stroke-width:0.0901469;stroke-linecap:butt;stroke-linejoin:round;stroke-miterlimit:4;stroke-dasharray:none;stroke-dashoffset:0;stroke-opacity:1;paint-order:stroke fill markers"
       d=""
       id="path2278"
       inkscape:connector-curvature="0"
       transform="matrix(0.26458333,0,0,0.26458333,380.33566,317.42618)" /><path
       style="opacity:1;fill:#c0e2ca;fill-opacity:1;stroke:none;stroke-width:0.0901469;stroke-linecap:butt;stroke-linejoin:round;stroke-miterlimit:4;stroke-dasharray:none;stroke-dashoffset:0;stroke-opacity:1;paint-order:stroke fill markers"
       d=""
       id="path2318"
       inkscape:connector-curvature="0"
       transform="matrix(0.26458333,0,0,0.26458333,380.33566,317.42618)" /><path
       style="fill:#000000;stroke-width:0.279933"
       d="m 1147.2526,513.65578 c -8.9787,-1.6394 -16.4883,-7.26184 -20.5428,-15.3805 -1.1782,-2.35939 -1.8363,-4.29202 -2.4781,-7.27827 l -0.4814,-2.23946 -0.029,12.24708 -0.029,12.24708 h -7.6982 -7.6981 v -9.93764 -9.93763 h -2.2395 -2.2394 v 9.93763 9.93764 h -7.6982 -7.6981 v -27.57343 -27.57342 h 7.6945 7.6946 l 0.073,9.86764 0.074,9.86766 h 2.0994 2.0995 l 0.073,-9.86766 0.074,-9.86764 h 7.6945 7.6946 l 0.02,12.24708 0.019,12.24707 0.6545,-2.82692 c 2.7273,-11.77927 11.5815,-20.19697 23.2406,-22.0947 14.2975,-2.32719 28.2789,6.81685 31.8992,20.86259 l 0.6855,2.65937 0.014,-11.54725 0.014,-11.54724 h 15.1164 15.1164 v 7.83812 7.83814 h -7.2782 -7.2783 v 1.9548 1.95481 l 7.2083,0.0747 7.2082,0.0747 0.074,7.76814 0.074,7.76815 h -7.2827 -7.2826 v 2.09951 2.09949 h 7.2783 7.2782 v 1.98286 c 0,1.09058 0.106,1.94087 0.2355,1.88955 0.1295,-0.0513 3.3412,-1.4658 7.1371,-3.14329 l 6.9017,-3.04998 1.137,1.2917 c 2.3953,2.7212 5.6249,2.19756 6.7092,-1.08782 0.7142,-2.16399 -0.6763,-3.83287 -4.0649,-4.87872 -6.5702,-2.02787 -10.1237,-4.3915 -12.7791,-8.49998 -3.1359,-4.85171 -3.1507,-11.69889 -0.037,-16.93842 1.2464,-2.09739 4.1235,-4.89865 6.1549,-5.99285 1.8166,-0.9785 5.3131,-1.88343 7.2774,-1.88343 2.289,0 5.5981,0.77366 7.7915,1.82168 3.5737,1.70742 3.7178,1.07631 -1.9529,8.5536 -2.7113,3.57493 -4.8948,6.53081 -4.8525,6.56858 0.042,0.0378 1.0848,0.34062 2.3165,0.67298 3.0988,0.83616 6.9247,2.76207 9.1441,4.60301 6.3119,5.2356 8.5317,14.17149 5.55,22.34164 -2.0149,5.52106 -6.1137,9.49612 -11.6692,11.31703 -2.1959,0.71976 -2.847,0.80686 -5.9642,0.79792 -2.7732,-0.008 -3.9611,-0.1417 -5.7259,-0.64474 -5.4689,-1.55871 -9.8323,-5.00351 -12.4525,-9.83082 l -0.8421,-1.55154 -0.011,5.66866 -0.011,5.66864 h -15.1164 -15.1164 l -0.014,-11.54724 -0.014,-11.54725 -0.6703,2.59362 c -1.6873,6.52917 -5.8726,12.54169 -11.3393,16.28997 -6.0784,4.16773 -13.9287,5.89701 -20.9501,4.61498 z m 6.9371,-21.28016 c 5.5303,-1.64234 6.5171,-9.51032 1.5759,-12.56525 -1.1136,-0.68845 -1.7355,-0.86262 -3.3754,-0.94544 -1.7249,-0.0871 -2.2115,4.7e-4 -3.4281,0.61693 -4.275,2.16628 -5.2181,7.55751 -1.9329,11.04916 1.9398,2.06186 4.3436,2.6811 7.1605,1.8446 z m -126.7933,-6.69734 v -27.57342 h 14.9764 14.9764 v 7.83812 7.83814 h -7.2783 -7.2783 v 1.95953 1.95953 h 7.2783 7.2783 v 7.83814 7.83812 h -7.2783 -7.2783 v 2.09951 2.09949 h 7.2783 7.2783 v 7.83814 7.83813 h -14.9764 -14.9764 z m 55.2868,27.37556 c -4.1236,-0.55965 -8.2322,-2.09939 -11.7898,-4.41831 -3.6894,-2.40491 -6.0618,-4.9946 -9.2588,-10.10695 -2.3217,-4.0255 -2.9983,-9.5061 -2.9989,-12.99026 0.014,-4.60299 0.6526,-7.52789 2.4958,-11.41889 4.3453,-9.17308 12.665,-14.99478 22.7327,-15.90709 l 2.0381,-0.18471 v 10.65148 10.65146 l -1.1331,0.19146 c -1.4763,0.24944 -3.3076,1.66413 -4.181,3.23002 -0.5291,0.94855 -0.6934,1.64824 -0.6871,2.92623 0.016,3.22383 1.8769,5.40879 5.2315,6.14111 l 0.7697,0.16806 v 10.63212 10.63214 l -1.1896,-0.0419 c -0.6543,-0.0231 -1.5675,-0.0932 -2.0295,-0.15593 z"
       id="path320"
       sodipodi:nodetypes="cccccccccccccccccccccccccccccccsccccccccccccccccccccccssscssccssscccsssscccccccccccsccccscccccccccccccccccccccccccccccccccccccsccccccccc" /></g></svg>
