<?xml version="1.0" encoding="UTF-8" standalone="no"?>
<!-- Created with Inkscape (http://www.inkscape.org/) -->

<svg
   width="15.976128cm"
   height="2.8984227cm"
   viewBox="0 0 159.76128 28.984227"
   version="1.1"
   id="svg8"
   sodipodi:docname="distress.svg"
   inkscape:version="1.1.2 (0a00cf5339, 2022-02-04)"
   xmlns:inkscape="http://www.inkscape.org/namespaces/inkscape"
   xmlns:sodipodi="http://sodipodi.sourceforge.net/DTD/sodipodi-0.dtd"
   xmlns="http://www.w3.org/2000/svg"
   xmlns:svg="http://www.w3.org/2000/svg"
   xmlns:rdf="http://www.w3.org/1999/02/22-rdf-syntax-ns#"
   xmlns:cc="http://creativecommons.org/ns#"
   xmlns:dc="http://purl.org/dc/elements/1.1/">
  <sodipodi:namedview
     id="namedview55"
     pagecolor="#505050"
     bordercolor="#ffffff"
     borderopacity="1"
     inkscape:pageshadow="0"
     inkscape:pageopacity="0"
     inkscape:pagecheckerboard="1"
     inkscape:document-units="cm"
     showgrid="false"
     inkscape:zoom="0.12212208"
     inkscape:cx="302.97551"
     inkscape:cy="90.073801"
     inkscape:window-width="1317"
     inkscape:window-height="841"
     inkscape:window-x="157"
     inkscape:window-y="87"
     inkscape:window-maximized="0"
     inkscape:current-layer="svg8" />
  <defs
     id="defs2">
    <filter
       style="color-interpolation-filters:sRGB"
       id="filter9772"
       x="-0.05254383"
       y="-0.28952023"
       width="1.1050467"
       height="1.5793159">
      <feGaussianBlur
         stdDeviation="2.3"
         in="SourceAlpha"
         result="result0"
         id="feGaussianBlur9746" />
      <feMorphology
         in="SourceAlpha"
         radius="6.6"
         result="result1"
         id="feMorphology9748" />
      <feGaussianBlur
         stdDeviation="8.9"
         in="result1"
         id="feGaussianBlur9750" />
      <feColorMatrix
         values="1 0 0 0 0 0 1 0 0 0 0 0 1 0 0 0 0 0 0.3 0"
         result="result91"
         id="feColorMatrix9752" />
      <feComposite
         in="result0"
         operator="out"
         result="result2"
         in2="result91"
         id="feComposite9754" />
      <feGaussianBlur
         stdDeviation="1.7"
         result="result4"
         id="feGaussianBlur9756" />
      <feDiffuseLighting
         surfaceScale="10"
         id="feDiffuseLighting9760">
        <feDistantLight
           azimuth="225"
           elevation="45"
           id="feDistantLight9758" />
      </feDiffuseLighting>
      <feBlend
         in2="SourceGraphic"
         mode="multiply"
         id="feBlend9762" />
      <feComposite
         in2="SourceAlpha"
         operator="in"
         result="result3"
         id="feComposite9764" />
      <feSpecularLighting
         in="result4"
         surfaceScale="5"
         specularExponent="17.89999962"
         id="feSpecularLighting9768">
        <feDistantLight
           azimuth="225"
           elevation="45"
           id="feDistantLight9766" />
      </feSpecularLighting>
      <feComposite
         in2="result3"
         operator="atop"
         id="feComposite9770" />
    </filter>
    <filter
       style="color-interpolation-filters:sRGB"
       id="filter996"
       x="-0.013199951"
       y="-0.072626509"
       width="1.026359"
       height="1.1455286">
      <feGaussianBlur
         result="result6"
         stdDeviation="3"
         in="SourceGraphic"
         id="feGaussianBlur990" />
      <feColorMatrix
         values="1 0 0 0 0 0 1 0 0 0 0 0 1 0 0 0 0 0 1 0 "
         result="result7"
         in="SourceGraphic"
         id="feColorMatrix992" />
      <feComposite
         operator="in"
         in="result6"
         in2="result7"
         id="feComposite994" />
    </filter>
    <filter
       style="color-interpolation-filters:sRGB"
       id="filter1445"
       x="-0.0060465187"
       y="-0.03319129"
       width="1.0120522"
       height="1.0666581">
      <feMorphology
         radius="4.3"
         in="SourceAlpha"
         result="result91"
         id="feMorphology1431" />
      <feComposite
         operator="out"
         in="SourceGraphic"
         in2="result91"
         id="feComposite1433" />
      <feGaussianBlur
         result="result0"
         stdDeviation="1.2"
         id="feGaussianBlur1435" />
      <feDiffuseLighting
         diffuseConstant="1"
         id="feDiffuseLighting1439">
        <feDistantLight
           elevation="66"
           azimuth="225"
           id="feDistantLight1437" />
      </feDiffuseLighting>
      <feBlend
         mode="multiply"
         in2="SourceGraphic"
         id="feBlend1441" />
      <feComposite
         operator="in"
         in2="SourceAlpha"
         id="feComposite1443" />
    </filter>
    <filter
       style="color-interpolation-filters:sRGB"
       id="filter1704"
       x="-0.0060465187"
       y="-0.03319129"
       width="1.0120522"
       height="1.0666581">
      <feMorphology
         radius="4.3"
         in="SourceAlpha"
         result="result91"
         id="feMorphology1690" />
      <feComposite
         operator="out"
         in="SourceGraphic"
         in2="result91"
         id="feComposite1692" />
      <feGaussianBlur
         result="result0"
         stdDeviation="1.2"
         id="feGaussianBlur1694" />
      <feDiffuseLighting
         diffuseConstant="1"
         id="feDiffuseLighting1698">
        <feDistantLight
           elevation="66"
           azimuth="225"
           id="feDistantLight1696" />
      </feDiffuseLighting>
      <feBlend
         mode="multiply"
         in2="SourceGraphic"
         id="feBlend1700" />
      <feComposite
         operator="in"
         in2="SourceAlpha"
         id="feComposite1702" />
    </filter>
    <filter
       style="color-interpolation-filters:sRGB"
       id="filter5082"
       x="-0.0047689546"
       y="-0.026290148"
       width="1.0095379"
       height="1.0525804">
      <feMorphology
         radius="4.3"
         in="SourceAlpha"
         result="result91"
         id="feMorphology5068" />
      <feComposite
         operator="out"
         in="SourceGraphic"
         in2="result91"
         id="feComposite5070" />
      <feGaussianBlur
         result="result0"
         stdDeviation="1.2"
         id="feGaussianBlur5072" />
      <feDiffuseLighting
         diffuseConstant="1"
         id="feDiffuseLighting5076">
        <feDistantLight
           elevation="66"
           azimuth="225"
           id="feDistantLight5074" />
      </feDiffuseLighting>
      <feBlend
         mode="multiply"
         in2="SourceGraphic"
         id="feBlend5078" />
      <feComposite
         operator="in"
         in2="SourceAlpha"
         id="feComposite5080" />
    </filter>
  </defs>
  <metadata
     id="metadata5">
    <rdf:RDF>
      <cc:Work
         rdf:about="">
        <dc:format>image/svg+xml</dc:format>
        <dc:type
           rdf:resource="http://purl.org/dc/dcmitype/StillImage" />
      </cc:Work>
    </rdf:RDF>
  </metadata>
  <path
     id="path930"
     style="fill:#000000;stroke-width:0.180522"
     d="M 87.287576,7.888779e-4 C 86.13735,-0.02469579 84.716382,0.56818679 83.311074,1.6477167 c 0.658823,0.028814 1.218705,0.070168 1.289328,0.1131716 0.09242,0.05589 0.371387,0.080303 0.619601,0.053743 2.77844,-0.2977338 3.249795,-0.3003788 3.530534,-0.019637 0.260942,0.260848 0.146725,0.2880053 -1.30638,0.3105754 -0.875853,0.01352 -2.485925,0.00473 -3.578077,-0.019637 -0.386554,-0.00863 -0.701276,-0.038165 -1.030944,-0.063562 -0.528526,0.4502195 -1.050158,0.9684176 -1.54926,1.5518424 -2.1889,2.5587008 -1.988619,4.6972591 0.434081,4.6317589 0.852699,-0.023098 2.010196,1.2408932 1.565796,1.709973 -0.137499,0.145132 -0.775068,0.041802 -1.416968,-0.22996 -2.840001,-1.2023487 -7.69012,2.319402 -9.81542,7.127732 -1.235202,3.953518 -1.206143,8.873583 1.805056,10.731643 1.757101,1.00719 2.691366,0.990186 4.918562,-0.08888 1.693402,-0.820341 1.763292,-0.819875 2.952793,0.0052 1.0791,0.748728 1.415907,0.780219 2.947106,0.275952 2.996002,-0.98666 5.773978,-5.09135 4.82658,-7.373712 -0.328499,-0.79165 -2.001084,-1.323883 -2.736784,-0.547251 -0.4224,0.445836 -0.613678,0.432519 -0.939478,-0.06408 -0.578,-0.88106 -0.244456,-2.465999 1.992644,-9.474359 C 88.163839,9.2005535 88.379178,8.4338042 88.624447,7.595665 88.502381,7.5713234 88.4071,7.5431188 88.386216,7.5093659 88.265534,7.3140875 88.395741,7.2390966 88.726248,7.2577021 89.894862,3.1945302 89.925377,1.6890079 88.967061,0.68600972 88.537762,0.23665963 87.958676,0.01564021 87.287576,7.8014665e-4 Z M 114.55258,0.65707939 c -2.955,0.0344001 -8.16848,3.56881601 -8.01088,6.34896771 0.06,1.0591192 0.33297,1.4552481 1.16117,1.6851684 2.18309,0.6060413 2.33216,2.3689465 0.28163,7.5199535 0.0728,0.01656 0.10151,0.03995 0.0264,0.07028 -0.0155,0.0063 -0.0387,0.0046 -0.0563,0.0093 -0.32651,0.816464 -0.69732,1.701647 -1.1343,2.696477 -1.16109,2.643505 -1.76804,4.500751 -1.87895,5.877161 0.068,0.01916 0.0862,0.04574 -0.008,0.08423 -0.10897,1.645298 0.52882,2.574208 1.97352,3.173965 1.07785,0.447495 2.31997,0.298575 3.51452,-0.264065 -0.0566,-0.0063 -0.11918,-0.0092 -0.15761,-0.02479 -0.12221,-0.04942 0.0215,-0.087 0.31936,-0.0832 0.028,2.65e-4 0.0298,0.0047 0.0543,0.0057 1.46722,-0.760262 2.8396,-2.158752 3.699,-3.998722 1.0595,-2.268461 0.67361,-3.511125 -1.00769,-3.246314 -1.1645,0.183446 -1.27842,0.0918 -1.23042,-0.993738 0.029,-0.65754 1.07299,-4.404831 2.32079,-8.327141 0.20825,-0.654672 0.30976,-0.999903 0.48524,-1.5570123 -0.56568,0.00828 -1.15809,0.00675 -1.57561,-0.017039 -0.61641,-0.035139 -0.0645,-0.063923 1.22628,-0.063561 0.18538,3.97e-5 0.22081,0.00452 0.37258,0.00569 1.72568,-5.4826325 1.97166,-6.6895056 1.50637,-7.7814373 -0.18443,0.03094 -0.36137,0.027171 -0.49557,-0.05116 -0.22454,-0.1310679 -0.12057,-0.1715214 0.40359,-0.1684652 -0.002,-0.00426 -0.003,-0.00813 -0.005,-0.012401 -0.3057,-0.63255 -0.95606,-0.89743073 -1.78336,-0.88780122 z M 17.282545,1.2436069 c -0.6037,4.763e-4 -1.23813,0.00324 -1.90531,0.00723 C 5.1237456,1.3172407 4.4999063,1.4436063 2.1036263,3.9411153 -1.5085652,7.8722602 -0.22992628,15.140253 4.1179739,16.565151 c 0.086535,0.01013 0.1529662,0.0236 0.1364258,0.04703 1.6434035,0.484092 3.697423,0.168063 6.0993693,-1.482082 0.83181,-1.044718 0.702488,-4.135885 -0.223242,-5.3412761 -0.9376603,-1.2208987 -0.7691066,-2.14902 0.389123,-2.1430192 1.08332,0.005 2.529337,1.9362076 2.876827,3.8411073 0.146707,0.804293 -0.0252,2.126686 -0.333829,3.487642 0.591257,0.0098 0.880243,0.02964 0.437699,0.05736 -0.12782,0.008 -0.299383,0.0075 -0.451135,0.01188 -0.399174,1.729528 -1.038597,3.521728 -1.74408,4.502052 -0.209368,0.290944 -0.51717,0.575043 -0.84801,0.822687 0.425074,0.0052 0.596008,0.03613 0.339514,0.07493 v 5.29e-4 c -0.136905,0.02045 -0.30647,0.03042 -0.469739,0.02997 -0.3864389,0.268965 -0.8001049,0.473382 -1.1472166,0.54777 -1.6253293,0.348437 -2.9013463,1.73456 -3.7527426,4.047299 0.3672768,0.0086 0.546904,0.03303 0.3178101,0.0677 -0.098445,0.0149 -0.2307847,0.01807 -0.3581176,0.02222 -2.91e-4,7.93e-4 -7.408e-4,0.0013 -0.00103,0.0021 -0.7665998,2.138532 -0.5832875,3.38042 0.5426027,3.67523 0.4107799,0.1075 1.4577534,0.221628 1.9414835,0.0863 0.4837099,-0.13512 5.5831235,-0.105278 8.3762335,-0.141076 2.4989,-0.032 5.528282,0.01341 7.138582,-0.4377 1.6103,-0.451081 2.208651,-1.096574 2.208651,-1.096574 2.082581,-1.27177 4.011151,-3.797215 5.400188,-6.796485 -0.518182,-0.03947 -0.518369,-0.08568 0.05426,-0.113172 0.117428,-0.257194 0.231494,-0.514599 0.340547,-0.778246 -0.19357,0.0104 -0.399383,0.0085 -0.55087,-0.02066 -0.223401,-0.04303 -0.04061,-0.07803 0.406176,-0.07803 0.08843,0 0.113189,0.0062 0.179834,0.0088 0.83502,-2.042041 1.421568,-4.252417 1.620573,-6.426999 -0.121081,0.03681 -0.253328,0.03349 -0.307474,-0.02066 -0.05999,-0.06008 0.0469,-0.102684 0.237195,-0.09508 0.0424,0.0019 0.04682,0.01011 0.07545,0.01447 C 33.347412,9.4772704 32.688051,6.129754 30.586645,3.7830665 28.478345,1.7009742 26.337947,1.2366754 17.282547,1.2436853 Z m 97.518085,0.3147095 c 0.0206,0.015364 -0.008,0.062292 -0.0832,0.1436605 -0.13023,0.1417511 -0.65532,0.1937655 -1.53428,0.1524456 l -1.33635,-0.062528 1.20354,-0.036174 c 0.66207,-0.019738 1.3524,-0.088175 1.53428,-0.1524455 0.12482,-0.0441 0.19536,-0.060324 0.21601,-0.044959 z M 5.7897064,2.290055 c 0.248231,0 0.349935,0.04087 0.2258261,0.09095 -0.1241142,0.05008 -0.3270263,0.05008 -0.4511352,0 -0.1241081,-0.05008 -0.022916,-0.09095 0.2253091,-0.09095 z M 88.032751,2.6368036 c 0.210302,0.00865 0.25304,0.051437 0.109038,0.1090374 -0.130318,0.05208 -0.285756,0.046027 -0.345715,-0.013951 -0.05998,-0.06008 0.04638,-0.1026846 0.236677,-0.095085 z m 23.001699,0.1948196 c 0.24822,0 0.34994,0.04087 0.22582,0.09095 -0.1241,0.05008 -0.32703,0.05008 -0.45113,0 -0.12411,-0.04998 -0.0229,-0.09095 0.22531,-0.09095 z m 4.60333,0.02739 c 0.59572,0.00106 0.81745,0.03475 0.493,0.07493 -0.32447,0.04009 -0.81187,0.039164 -1.08314,-0.00212 -0.27126,-0.04113 -0.006,-0.073541 0.59014,-0.072864 z m 7.76491,0.4082442 c -1.81981,0.026194 -3.75646,1.0164445 -4.51136,2.5130232 -0.4881,0.9675706 -0.43465,1.2127362 0.42995,1.971458 1.1514,1.0104676 1.55176,1.0629874 3.58686,0.4681882 2.1487,-0.6280706 3.09168,-1.5180866 3.14968,-2.9713953 0.036,-0.9079098 -0.22292,-1.3768705 -0.92242,-1.6691504 -0.5325,-0.2224696 -1.12611,-0.3208655 -1.73271,-0.3121237 z m -95.228303,0.828373 c 0.248237,0 0.349935,0.04087 0.225826,0.09095 -0.124108,0.050078 -0.327026,0.050078 -0.451135,0 -0.124114,-0.04998 -0.02291,-0.09095 0.225309,-0.09095 z m 82.477653,0.8268229 c 0.10883,0.0096 0.21252,0.029766 0.29508,0.06201 0.27282,0.1065769 0.19681,0.1432613 -0.31885,0.1529636 -0.37234,0.00704 -0.67696,-0.018759 -0.67696,-0.056846 0,-0.1205918 0.37424,-0.1869387 0.70073,-0.1581276 z m -1.1374,0.9637634 c 0.2103,0.00865 0.25306,0.05134 0.10904,0.1090374 -0.13031,0.052081 -0.28625,0.04603 -0.34623,-0.013944 -0.06,-0.060079 0.0469,-0.1026848 0.23719,-0.095086 z m 5.31028,0.027906 c 0.34752,0 0.49001,0.036745 0.31625,0.082166 -0.17375,0.045421 -0.45824,0.045421 -0.632,0 -0.17375,-0.04532 -0.0318,-0.082166 0.31575,-0.082166 z m 5.59655,0.1803506 c 0.34752,0 0.49001,0.037264 0.31626,0.082682 -0.17376,0.04532 -0.45824,0.04532 -0.632,0 -0.17373,-0.045318 -0.0318,-0.082682 0.31574,-0.082682 z M 84.588001,6.2681057 c 0.29786,0.00362 0.397848,0.044119 0.222207,0.089919 -0.175641,0.04576 -0.419351,0.042791 -0.54157,-0.00672 -0.122216,-0.049411 0.02151,-0.086101 0.319363,-0.083201 z m -57.082307,0.029456 c 0.03272,-0.012488 0.07748,-0.00482 0.127124,0.02585 0.09929,0.061365 0.180868,0.1926802 0.180868,0.2919704 0,0.099301 -0.08158,0.1305666 -0.180868,0.069247 -0.09929,-0.061362 -0.180351,-0.1931988 -0.180351,-0.292489 0,-0.049649 0.02051,-0.082082 0.05323,-0.094567 z M 22.683766,6.427787 c 0.210295,0.00865 0.253048,0.051438 0.109037,0.1090375 -0.13031,0.05208 -0.285741,0.046027 -0.345715,-0.013944 -0.05999,-0.060079 0.04637,-0.1026848 0.236678,-0.095083 z M 8.6582653,6.4624104 C 8.6734894,6.4776239 8.6346062,6.5272677 8.5461274,6.6164058 8.4236764,6.7397916 8.2777161,6.7955129 8.222116,6.7399133 8.1665371,6.6843376 8.2668047,6.5834255 8.4448415,6.5156366 8.5734795,6.4666543 8.6430417,6.4471863 8.6582653,6.4624104 Z M 108.37001,7.5026568 c 0.4003,-0.00159 0.83615,0.042267 0.9772,0.1322917 0.11428,0.072959 -0.23113,0.1364112 -0.76739,0.1421104 -0.53627,0.00527 -0.97514,-0.055703 -0.97514,-0.1353926 0,-0.09053 0.36503,-0.1374616 0.76533,-0.1390095 z m -26.219071,0.022728 c 0.248251,0 0.349933,0.04087 0.225825,0.09095 -0.124106,0.05008 -0.327538,0.05008 -0.451652,0 -0.124105,-0.05008 -0.02238,-0.09095 0.225827,-0.09095 z m 5.596041,0 c 0.248264,0 0.349933,0.04087 0.225825,0.09095 -0.124108,0.05008 -0.327544,0.05008 -0.451652,0 -0.124116,-0.05008 -0.02238,-0.09095 0.225827,-0.09095 z m 22.65546,0.1870683 c 0.29791,0.00362 0.39786,0.044117 0.22221,0.089916 -0.17563,0.04576 -0.41934,0.042794 -0.54157,-0.00672 -0.12221,-0.049411 0.0215,-0.086998 0.31936,-0.083198 z m 1.26349,0.010345 c 0.39722,0.00212 0.53875,0.038936 0.3142,0.082166 -0.22455,0.04295 -0.54983,0.041513 -0.72244,-0.00362 -0.17259,-0.04513 0.0111,-0.080449 0.40824,-0.078549 z M 22.476543,9.0229765 c 1.201701,0.00601 3.598488,1.7346215 3.815789,4.0374805 -0.0096,1.023581 -0.594571,2.50158 -1.399398,3.845762 0.152106,0.01434 0.193692,0.04967 0.06614,0.100766 v 5.29e-4 c -0.04744,0.01897 -0.09688,0.02162 -0.14521,0.02532 -0.698428,1.138341 -1.54558,2.168345 -2.345077,2.705777 -1.9561,1.314892 -3.904614,1.4668 -4.485514,0.349851 -0.336688,-0.647353 0.522933,-4.241739 1.463993,-7.03213 -0.19278,-0.06215 -0.134115,-0.08811 0.03256,-0.101801 0.36689,-1.077006 0.725155,-2.024788 1.052649,-2.591573 -0.0484,-2.65e-4 -0.09796,-2.65e-4 -0.145211,-0.01601 -0.183494,-0.06115 -0.183518,-0.103828 5.16e-4,-0.217559 0.115172,-0.07118 0.234907,-0.07146 0.312643,-0.03617 0.041,-0.05738 0.08903,-0.1634353 0.127641,-0.2056734 0.4369,-0.4779301 1.178778,-0.8665475 1.648478,-0.8645473 z M 134.92188,9.3919459 c -0.058,7.938e-4 -0.11565,0.00318 -0.17415,0.00516 -1.73121,0.076465 -2.83616,0.3774017 -4.06332,1.2485031 0.62437,0.03561 1.11053,0.07957 1.11053,0.128156 0,0.172249 -1.18633,0.402868 -1.39837,0.271817 -0.0189,-0.01167 -0.13801,-0.02273 -0.20153,-0.03462 -0.46369,0.375306 -0.95393,0.827656 -1.51361,1.389062 -0.24795,0.24874 -0.47379,0.514753 -0.6997,0.780315 0.3364,0.02524 0.43816,0.06133 0.20206,0.115239 -0.0958,0.02191 -0.22366,0.02747 -0.34106,0.03979 -2.107,2.555769 -3.20619,5.798759 -3.07475,8.783444 0.1361,3.09017 0.80684,4.900719 2.76934,5.762438 1.9203,0.843171 3.26947,0.758999 5.42757,-0.338479 3.3606,-1.70905 5.83479,-5.420903 6.70088,-10.107912 0.36739,-1.988143 0.18003,-3.750104 -0.41599,-5.131985 -0.008,0.0038 -0.0103,0.0069 -0.0202,0.01085 -0.13032,0.05208 -0.28623,0.04551 -0.34623,-0.01447 -0.06,-0.05998 0.0469,-0.102169 0.23719,-0.09457 0.0529,0.0021 0.0627,0.01191 0.0941,0.0181 -0.21044,-0.469016 -0.46514,-0.891976 -0.77411,-1.256252 -0.10476,-0.0031 -0.14842,0.0033 -0.28112,-0.0047 v -5.29e-4 c -0.67172,-0.04003 -1.30268,-0.15539 -1.40198,-0.256312 -0.12218,-0.124151 0.19717,-0.142383 0.98805,-0.05736 0.2143,0.02304 0.34171,0.04763 0.5085,0.07183 -0.83293,-0.8598828 -1.96261,-1.3483301 -3.3321,-1.3275683 z M 48.469274,9.6038216 c -0.718402,0.00699 -1.457929,0.1861476 -1.739429,0.4361474 -0.4214,0.374142 -0.834329,0.396004 -1.47743,0.07906 -1.3154,-0.6482396 -4.337805,-0.4257329 -6.020304,0.442868 -2.1375,1.1035 -5.49693,5.243063 -6.23993,7.689453 -0.213951,0.704369 -0.340753,1.391039 -0.428398,2.066023 0.989501,0.0052 1.753427,0.05109 1.693954,0.110588 -0.05889,0.05892 -0.823106,0.0899 -1.713074,0.07803 -0.382693,3.377713 0.76623,6.246852 3.152779,7.355623 1.47755,0.686461 2.565554,0.576011 4.397665,-0.401524 -0.307427,-0.02424 -0.641908,-0.127735 -0.75861,-0.24443 -0.176625,-0.176633 -0.131098,-0.217972 0.219625,-0.201022 0.406077,0.0196 0.805997,0.09123 1.071769,0.171566 l 1.776119,-1.017508 0.444417,0.483174 c 0.02123,-5.29e-4 0.02966,-0.0066 0.05374,-0.0057 0.210301,0.0087 0.253041,0.05134 0.109037,0.109034 -0.01892,0.0076 -0.03826,0.0052 -0.05788,0.01035 l 0.410827,0.446484 c 0.8792,0.955439 1.088503,0.996307 2.481502,0.484206 0.202298,-0.07437 0.402402,-0.187447 0.603065,-0.29042 -0.184375,0.04228 -0.415766,0.08698 -0.687814,0.131257 -0.685849,0.111384 -1.118869,0.109485 -1.234033,-0.0057 -0.116234,-0.116219 0.09064,-0.17725 0.599963,-0.17725 0.616976,0 0.755795,-0.05592 0.673345,-0.270785 -0.115382,-0.300681 0.160608,-0.374891 0.336413,-0.09043 0.06136,0.0993 0.282696,0.180869 0.491961,0.180869 0.125637,0 0.175323,0.01191 0.225308,0.02376 2.162958,-1.314185 4.049292,-4.089075 3.98167,-6.114357 -0.034,-1.022038 -0.184484,-1.144177 -1.139984,-0.928108 -0.6052,0.136861 -1.201801,0.09702 -1.325499,-0.08888 -0.123701,-0.185899 0.327522,-2.041147 1.002522,-4.122227 0.09616,-0.296426 0.176258,-0.594021 0.263033,-0.892453 -0.07396,-0.0021 -0.148413,-0.0109 -0.204639,-0.03359 -0.124108,-0.04998 -0.02238,-0.09147 0.225827,-0.09147 0.0076,0 0.0081,0.0016 0.0155,0.0016 0.18341,-0.640477 0.345382,-1.262447 0.468707,-1.83193 -0.01257,-7.94e-4 -0.02045,-0.0011 -0.03307,-0.0021 l -1.444358,-0.103352 1.141532,-0.08423 c 0.126952,-0.0094 0.254019,-0.006 0.382408,-0.0083 0.187311,-0.902031 0.279484,-1.63053 0.229441,-1.966807 -0.154297,-1.0372992 -0.410377,-1.2435313 -1.642277,-1.3203319 -0.100398,-0.00601 -0.202805,-0.00773 -0.305406,-0.00672 z M 156.22291,9.7939909 c -0.12546,-0.00132 -0.25987,0.013626 -0.39016,0.021193 0.0441,0.011615 0.0789,0.028424 0.14056,0.028424 0.10573,0 0.18823,-0.0195 0.2496,-0.049609 z m 0.23822,0.032554 c -0.29197,0.1253146 -0.7543,0.1963321 -1.60507,0.2537331 -0.22409,0.01511 -0.35545,0.0092 -0.5395,0.01447 -1.03829,0.285678 -2.27147,0.775446 -2.9161,1.201478 l -1.31155,0.866614 -0.86351,-1.179772 c -0.6837,-0.934352 -1.11229,-1.130589 -2.05879,-0.942578 -1.8893,0.375263 -3.87592,1.752843 -5.15111,3.328995 -2.2e-4,0.02756 -0.0158,0.06013 -0.0584,0.102836 -0.0189,0.01889 -0.0385,0.02893 -0.0579,0.04289 -0.73284,0.946063 -1.20822,1.953644 -1.23972,2.85564 -0.038,1.095521 0.086,1.214695 1.04697,1.008724 1.7569,-0.376721 1.74297,0.545116 -0.0501,3.330546 -1.9123,2.9702 -2.34881,5.704179 -1.04231,6.52725 1.0579,0.66648 1.72375,0.646348 3.46025,-0.104902 1.7673,-0.76454 5.68038,-4.52632 5.71438,-5.492689 0.013,-0.3673 -0.41688,-0.916377 -0.95498,-1.220597 -0.5383,-0.304239 -1.0612,-0.631055 -1.1622,-0.726054 -0.4302,-0.405072 2.53401,-2.729526 3.44062,-2.698028 1.6229,0.0564 1.63919,1.502789 0.046,4.109829 -1.4943,2.444999 -1.93279,4.995177 -1.0263,5.967077 1.32373,1.419042 5.48738,-0.05952 7.7432,-2.514058 -0.10373,-0.02802 -0.21151,-0.05635 -0.26665,-0.09199 -0.1634,-0.105572 0.0256,-0.149326 0.47697,-0.16433 0.16435,-0.195228 0.34615,-0.383202 0.48318,-0.588595 0.12293,-0.184258 0.17689,-0.319857 0.27543,-0.486275 -0.20043,0.195659 -0.42164,0.333005 -0.49816,0.302824 -0.19212,-0.07574 0.41034,-0.68833 0.67696,-0.68833 0.0168,0 0.0215,0.01042 0.0305,0.01704 0.67433,-1.294175 0.53304,-2.038254 -0.52968,-2.48512 -0.86415,-0.363312 -1.28553,-0.694528 -1.27951,-1.313614 -0.0313,-0.0024 -0.0549,-0.0011 -0.0863,-0.0036 l -1.6247,-0.133326 1.73271,-0.01913 c 0.0638,-0.592328 0.4522,-1.421741 1.19889,-2.746603 0.13271,-0.23555 0.20593,-0.388064 0.31626,-0.591177 -0.12273,0.0082 -0.24281,0.02106 -0.38189,0.0067 -0.62249,-0.0641 -0.63674,-0.07538 -0.12867,-0.10232 0.19754,-0.01048 0.41253,-0.04227 0.60409,-0.07907 0.26616,-0.497649 0.4696,-0.926166 0.60617,-1.270722 -0.0829,0.03332 -0.20185,0.05581 -0.33848,0.05581 -0.24821,0 -0.45114,-0.03117 -0.45114,-0.06925 0,-0.03808 0.20293,-0.108128 0.45114,-0.155546 0.1776,-0.03395 0.32902,-0.02627 0.40256,0.01138 0.26515,-0.730316 0.27829,-1.233223 0.0863,-1.8464 -0.17781,-0.567939 -0.47189,-1.036614 -0.8599,-1.402498 -0.14546,-0.03049 -0.26097,-0.07962 -0.26097,-0.148313 0,-0.01693 0.0106,-0.03197 0.0191,-0.04754 -0.54655,-0.417943 -1.25417,-0.6433846 -2.06809,-0.6914303 z M 66.555508,10.049787 c -0.5276,0.003 -1.097872,0.0891 -1.700673,0.263033 -1.066398,0.307832 -2.502085,0.977773 -3.189986,1.488282 l -1.250569,0.92811 -0.917773,-1.120862 c -0.7267,-0.887471 -1.161428,-1.058159 -2.087727,-0.82114 -1.284856,0.328766 -2.578338,1.150178 -3.651975,2.159559 0.02244,-7.94e-4 0.02655,-0.0057 0.05219,-0.0057 0.248233,0 0.349417,0.04087 0.225309,0.09095 -0.104238,0.04206 -0.256709,0.04048 -0.378788,0.01188 -1.385705,1.33781 -2.37037,2.991142 -2.343526,4.356323 0.02101,1.08594 0.150355,1.197115 1.089856,0.941546 1.718598,-0.467442 1.754841,0.445529 0.130741,3.297989 -1.731801,3.041661 -2.016546,5.770441 -0.679545,6.51433 1.082601,0.602361 1.740278,0.546431 3.41788,-0.29042 0.255521,-0.127465 0.562284,-0.339272 0.886767,-0.584462 -0.03489,-0.01778 -0.0091,-0.03113 0.05374,-0.04237 1.841,-1.408893 4.433306,-4.30853 4.417301,-5.115451 -0.01,-0.36407 -0.462407,-0.884547 -1.011309,-1.156518 -0.548798,-0.271999 -1.083659,-0.566658 -1.188556,-0.655256 -0.4475,-0.377561 2.360015,-2.837424 3.258715,-2.855124 1.608899,-0.0316 1.702966,1.398685 0.267168,4.063836 -1.346502,2.499518 -1.643317,5.046128 -0.694015,5.958808 1.540301,1.48087 6.380908,-0.758695 8.165909,-3.778065 0.900301,-1.35028 0.949008,-2.531295 -0.224792,-3.301606 -1.719199,-0.61522 -1.758255,-1.185193 -0.285253,-4.168222 0.306612,-0.620964 0.536959,-1.115639 0.712618,-1.537375 -0.252058,0.0047 -0.508754,-2.64e-4 -0.701767,-0.02429 -0.322684,-0.04009 -0.05884,-0.07286 0.586528,-0.07286 0.07241,0 0.08476,0.0039 0.147278,0.0047 0.455853,-1.125956 0.470646,-1.684909 0.191719,-2.43086 -0.518099,-1.385575 -1.714574,-2.127753 -3.297473,-2.118733 z m 19.566764,0.0026 c 0.248264,0 0.349927,0.04139 0.225827,0.09147 -0.124108,0.05008 -0.327554,0.05008 -0.451652,0 -0.124118,-0.04998 -0.02238,-0.09147 0.225825,-0.09147 z m -4.964039,0.0067 c 0.297852,0.0036 0.397852,0.04412 0.222211,0.08992 -0.175641,0.04576 -0.419352,0.04279 -0.541571,-0.0067 -0.122216,-0.04942 0.02148,-0.087 0.31936,-0.0832 z m -49.734432,0.01394 c 0.446768,0 0.629571,0.03551 0.406177,0.07855 -0.223401,0.04304 -0.588958,0.04304 -0.812354,0 -0.223393,-0.04303 -0.04061,-0.07855 0.406177,-0.07855 z m 90.886449,0.10387 c -1.9946,-0.003 -5.0383,1.688547 -6.1433,3.787365 -0.7777,1.477061 -0.77322,1.504937 0.43098,2.865978 l 1.21595,1.374592 -1.51309,2.785359 c 0.20125,-0.05292 1.12647,-0.08645 2.72542,-0.09457 0.99115,-0.0051 1.77464,0.0073 2.34301,0.03152 -0.35177,-0.960768 0.0747,-2.64232 1.29811,-5.166093 0.53223,-1.097952 0.86291,-1.867553 1.10846,-2.519743 -0.12865,0.0072 -0.25525,0.0019 -0.33383,-0.02997 -0.12223,-0.04941 0.0215,-0.0861 0.31936,-0.0832 0.0264,2.65e-4 0.0279,0.0043 0.0512,0.0052 0.46489,-1.277779 0.43671,-1.903662 -0.0424,-2.428793 -0.073,-0.0027 -0.17701,-0.0019 -0.24185,-0.0052 -0.40152,-0.0209 -0.23072,-0.03671 0.1819,-0.04806 -0.32916,-0.322244 -0.81716,-0.473511 -1.39991,-0.47439 z m -20.01067,0.237713 c -2.4286,0.0123 -5.466514,1.111948 -7.753014,3.114537 -2.843901,2.49079 -3.977228,4.754547 -4.196128,8.379333 -0.169101,2.800001 -0.07605,3.189836 1.074354,4.488617 h 5.29e-4 c 0.994399,1.12277 1.675096,1.471327 3.230295,1.653646 4.577199,0.536919 10.488464,-3.53686 10.236064,-7.05435 -0.091,-1.26447 -1.8345,-1.449459 -3.6313,-0.38499 -2.1743,1.28806 -3.608275,1.607751 -4.456575,0.993222 -1.337201,-0.96882 -0.635873,-1.657006 1.640727,-1.609204 2.819798,0.0592 5.593838,-1.388668 7.056928,-3.683497 1.38161,-2.16816 1.44973,-2.771529 0.49093,-4.33617 -0.6551,-1.06898 -2.0312,-1.569556 -3.6928,-1.561144 z m 11.53263,0.02222 c 0.49644,0.0013 0.67799,0.03652 0.40359,0.07803 -0.27441,0.04099 -0.68024,0.04026 -0.90227,-0.0026 -0.22203,-0.04285 0.002,-0.0764 0.49868,-0.07545 z m 21.11034,0.128674 c 0.7479,0 1.39539,0.08459 1.46089,0.190686 0.0791,0.128013 -0.29423,0.178657 -1.13688,0.153998 -0.69009,-0.02011 -1.34741,0.02077 -1.46089,0.09095 -0.12115,0.07483 -0.20671,0.01114 -0.20671,-0.153998 0,-0.229738 0.24732,-0.281636 1.34359,-0.281636 z m 19.59777,0.05426 c 0.54613,0 0.76914,0.03361 0.49609,0.07493 -0.27304,0.04132 -0.71966,0.04132 -0.9927,0 -0.27304,-0.04142 -0.0495,-0.07493 0.49661,-0.07493 z m -7.58197,0.335381 c 0.24824,0 0.34995,0.04087 0.22583,0.09095 -0.12411,0.05008 -0.32754,0.05008 -0.45165,0 -0.12411,-0.04998 -0.0224,-0.09095 0.22582,-0.09095 z m 9.20668,0.1788 c 0.78733,-0.01056 1.08053,0.03868 0.89142,0.149344 -0.1625,0.09502 -0.65958,0.101573 -1.17358,0.01551 l -0.89141,-0.149347 z m -2.88872,0.0088 c 1.12521,-0.0059 1.26833,0.02416 0.84853,0.17725 v 5.29e-4 c -0.33694,0.122486 -0.78775,0.124865 -1.35392,0.0067 -0.84527,-0.176606 -0.84292,-0.177787 0.50539,-0.184486 z m -73.697825,0.147796 c 0.3613,0.0021 0.427006,0.04661 0.241846,0.163814 -0.139917,0.08855 -0.362985,0.119343 -0.496094,0.06821 -0.381738,-0.146513 -0.284832,-0.234929 0.254248,-0.232027 z m 33.802585,0.567407 c 0.24824,0 0.34941,0.04087 0.22531,0.09095 -0.12411,0.05008 -0.32702,0.05008 -0.45113,0 -0.12411,-0.05008 -0.0224,-0.09095 0.22582,-0.09095 z m -33.136475,0.151929 c 0.553128,0 0.598011,0.102653 0.101285,0.232543 -0.198469,0.05188 -0.406365,0.02072 -0.461986,-0.06925 -0.05559,-0.08998 0.106627,-0.163296 0.360701,-0.163296 z m -1.960605,0.01394 c 0.210299,0.0087 0.253569,0.05185 0.109556,0.109553 -0.130307,0.05208 -0.286252,0.04551 -0.346233,-0.01447 -0.05998,-0.05998 0.04638,-0.102682 0.236677,-0.09508 z m 80.34755,0.185002 c 0.20335,-0.01125 0.2736,0.131048 0.21188,0.427881 -0.0545,0.262186 -0.1002,0.264941 -0.4222,0.02687 -0.33956,-0.251092 -0.3417,-0.274219 -0.0372,-0.392223 0.0975,-0.03778 0.17975,-0.05878 0.24753,-0.06253 z m -6.8895,0.04134 0.7612,0.01188 c 0.46631,0.0074 0.69651,0.07708 0.59427,0.179318 -0.10224,0.10223 -0.39712,0.09724 -0.76119,-0.01241 z m -50.6367,0.301273 c 0.0993,0 0.18086,0.08605 0.18086,0.191204 0,0.105119 -0.0816,0.140901 -0.18086,0.07958 -0.0993,-0.06137 -0.18035,-0.147402 -0.18035,-0.191204 0,-0.0438 0.0811,-0.07958 0.18035,-0.07958 z m -63.573901,0.180351 c 0.314413,0 0.572058,0.08279 0.572058,0.183967 0,0.10931 -0.201895,0.135853 -0.496611,0.06511 -0.70873,-0.169979 -0.732776,-0.249081 -0.07545,-0.249081 z m 37.51399,0 c 0.09686,0 0.333852,0.126714 0.526582,0.281119 0.330412,0.264697 0.324768,0.268288 -0.100769,0.06563 -0.552582,-0.263144 -0.655169,-0.346749 -0.425813,-0.346749 z m -9.938927,0.01447 c 0.210301,0.0087 0.253039,0.05134 0.109037,0.109038 -0.130318,0.05208 -0.286263,0.04551 -0.346234,-0.01447 -0.05999,-0.05998 0.0469,-0.102169 0.237197,-0.09457 z m 12.531016,0.01394 c 0.248253,0 0.349943,0.04139 0.225827,0.09147 -0.124105,0.05008 -0.32703,0.05008 -0.451136,0 -0.124105,-0.04998 -0.02291,-0.09147 0.225309,-0.09147 z m -34.893477,0.03927 c 0.03272,0.01442 0.05271,0.04975 0.05271,0.102319 0,0.105106 -0.08107,0.191204 -0.180351,0.191204 -0.0993,0 -0.180351,-0.03578 -0.180351,-0.07958 0,-0.04378 0.08106,-0.129881 0.180351,-0.191201 0.04964,-0.03068 0.09492,-0.03717 0.127641,-0.02273 z m 42.0703,0.0067 c 0.06166,-0.01992 0.17903,-0.0054 0.365353,0.03927 0.658074,0.157795 0.673544,0.187753 0.147277,0.288353 -0.278982,0.05333 -0.486068,-0.0075 -0.544668,-0.160197 -0.03582,-0.09336 -0.02961,-0.147505 0.03204,-0.167431 z m -27.265001,0.01704 c 0.817877,0.0097 2.206689,0.163952 2.028815,0.273886 -0.126162,0.07798 -0.764734,0.09957 -1.419551,0.04806 -1.228516,-0.09668 -1.409835,-0.139829 -1.157552,-0.276468 0.06648,-0.03601 0.275661,-0.0487 0.548288,-0.04548 z m -42.178823,0.02273 c 0.648713,0.01656 1.318163,0.0738 1.400948,0.15658 0.0497,0.0497 -0.532266,0.09043 -1.293461,0.09043 -0.7612,0 -1.383895,-0.07134 -1.383895,-0.158647 0,-0.08069 0.627695,-0.104936 1.276408,-0.08837 z m 11.464934,0.08062 c 0.210301,0.0087 0.253557,0.05144 0.109554,0.109037 -0.130317,0.05208 -0.286258,0.04603 -0.346232,-0.01394 -0.05999,-0.06008 0.04638,-0.102685 0.236678,-0.09508 z m 4.408,0.01447 c 0.248231,0 0.349417,0.04087 0.225309,0.09095 -0.124106,0.05008 -0.327027,0.05008 -0.451136,0 -0.124107,-0.05008 -0.02239,-0.09095 0.225827,-0.09095 z m 45.491798,0 c 0.248248,0 0.349417,0.04087 0.225309,0.09095 -0.124106,0.05008 -0.32702,0.05008 -0.451136,0 -0.124106,-0.05008 -0.02238,-0.09095 0.225827,-0.09095 z m 5.054471,0 c 0.248253,0 0.34994,0.04087 0.225827,0.09095 -0.124108,0.05008 -0.327028,0.05008 -0.451136,0 -0.124113,-0.05008 -0.02291,-0.09095 0.225309,-0.09095 z m -26.175664,0.180351 c 0.248227,0 0.34994,0.04087 0.225827,0.09095 -0.124108,0.05008 -0.327546,0.05008 -0.451652,0 -0.124116,-0.05008 -0.02241,-0.09095 0.225825,-0.09095 z m 66.883254,0.01704 c 0.39723,0.0021 0.53823,0.03894 0.31368,0.08217 v -5.3e-4 c -0.22456,0.04394 -0.54933,0.04203 -0.72192,-0.0031 -0.1726,-0.04523 0.0111,-0.08045 0.40824,-0.07855 z m 13.33769,0.077 c 0.10761,0.0087 0.18736,0.03511 0.21291,0.07648 0.0511,0.08274 0.32368,0.104002 0.60565,0.04754 0.28918,-0.05785 0.5659,-0.01595 0.6351,0.09612 0.0819,0.1325 -0.10629,0.192045 -0.56482,0.177765 -0.37818,-0.01175 -0.93102,-0.07677 -1.22887,-0.144177 l -0.54157,-0.122473 0.50075,-0.102835 c 0.1377,-0.02822 0.27324,-0.03708 0.38085,-0.02842 z m -1.68362,0.05788 c 0.1051,0 0.14098,0.08158 0.0796,0.180866 -0.0614,0.09929 -0.14741,0.180351 -0.19121,0.180351 -0.0437,0 -0.0796,-0.08106 -0.0796,-0.180351 0,-0.0993 0.0861,-0.180866 0.1912,-0.180866 z m 4.593,0 c 0.14894,0 0.27079,0.03175 0.27079,0.07079 0,0.03902 -0.12185,0.117965 -0.27079,0.175184 -0.14893,0.05716 -0.27078,0.02537 -0.27078,-0.0708 0,-0.09621 0.12185,-0.175183 0.27078,-0.175183 z m 4.27261,0.0062 c 0.43181,0.02297 0.91878,0.08948 1.05317,0.178284 0.18865,0.12463 -0.0261,0.151223 -0.70745,0.08733 -0.53794,-0.05042 -1.01855,-0.132392 -1.06815,-0.181901 -0.0862,-0.08624 0.29062,-0.106688 0.72243,-0.08372 z m -11.58379,0.0646 c 1.34038,0 1.88872,0.0283 1.21853,0.06305 -0.67018,0.03475 -1.76687,0.03475 -2.43706,0 -0.67019,-0.03475 -0.12184,-0.06305 1.21853,-0.06305 z m 17.69143,0.110071 c 0.0993,0 0.18035,0.08606 0.18035,0.191204 0,0.105119 -0.0811,0.140901 -0.18035,0.07958 -0.0993,-0.06137 -0.18087,-0.147405 -0.18087,-0.191204 0,-0.0438 0.0816,-0.07958 0.18087,-0.07958 z m 3.68556,0.01498 c 1.82826,0.01201 2.23931,0.0564 1.82005,0.195855 -0.29785,0.09906 -0.86634,0.172262 -1.26349,0.162264 -0.56316,-0.01416 -0.66284,0.02511 -0.45165,0.178281 0.20162,0.146241 0.0406,0.165365 -0.63149,0.07597 -0.49644,-0.06602 -1.0045,-0.203253 -1.12861,-0.305406 -0.15556,-0.127987 -0.30017,-0.123764 -0.46613,0.01394 -0.18217,0.151189 -0.24081,0.134581 -0.24081,-0.06821 0,-0.224038 0.38732,-0.265647 2.36213,-0.252698 z m 3.6251,0.02016 c 0.29794,0.0036 0.39785,0.04412 0.22221,0.08992 -0.17565,0.04576 -0.41934,0.04279 -0.54157,-0.0067 -0.12221,-0.04941 0.0215,-0.087 0.31936,-0.0832 z m -137.878404,0.15458 c 0.08629,0 0.234064,0.05681 0.410828,0.171048 0.233382,0.150802 0.228964,0.175868 -0.03411,0.177768 -0.167891,0.0016 -0.355693,-0.07848 -0.417029,-0.177768 -0.0706,-0.114234 -0.04598,-0.171048 0.04031,-0.171048 z m 79.436497,0.0052 c 0.07018,-0.0019 0.131633,0.01381 0.17105,0.05323 0.06191,0.06192 -0.02761,0.112655 -0.198956,0.112655 -0.171384,0 -0.260879,0.08158 -0.199469,0.180869 0.06136,0.09931 0.02506,0.180351 -0.0801,0.180351 -0.105095,0 -0.190685,-0.08363 -0.190685,-0.186037 0,-0.16901 0.287636,-0.335214 0.49816,-0.341064 z m -12.954249,0.194302 c 0.248271,0 0.349935,0.04139 0.225827,0.09147 -0.124108,0.05008 -0.327028,0.05008 -0.451136,0 -0.124105,-0.04998 -0.02291,-0.09147 0.225309,-0.09147 z m 10.612789,0.152448 c 0.373584,0 0.407975,0.0426 0.218591,0.270782 -0.1236,0.148942 -0.33211,0.270786 -0.463021,0.270786 -0.283376,0 -0.477715,-0.263327 -0.314708,-0.426331 0.06349,-0.06356 0.315312,-0.115237 0.559138,-0.115237 z m 47.220377,0 c 0.2657,0 0.31295,0.05448 0.17001,0.197403 -0.10858,0.108543 -0.33545,0.169481 -0.50384,0.135393 -0.39658,-0.08039 -0.14343,-0.332796 0.33383,-0.332796 z m -39.85597,0.01394 c 0.2103,0.0087 0.25306,0.05134 0.10904,0.109038 -0.13031,0.05208 -0.28625,0.04603 -0.34623,-0.01394 -0.06,-0.06008 0.0469,-0.102684 0.23719,-0.09508 z m 7.22023,0.180351 c 0.21031,0.0087 0.25358,0.05134 0.10956,0.109038 v 5.29e-4 c -0.13032,0.05208 -0.28626,0.04551 -0.34623,-0.01447 -0.06,-0.05998 0.0464,-0.102682 0.23667,-0.09508 z m 40.96391,0.211873 c 0.3972,0.0021 0.53824,0.03894 0.31368,0.08217 v 5.3e-4 c -0.22455,0.04295 -0.54932,0.041 -0.72192,-0.0041 -0.17259,-0.04523 0.0111,-0.08045 0.40824,-0.07855 z m -93.909514,0.09043 c 0.212333,0.0084 0.439896,0.02641 0.669726,0.05426 0.98315,0.119179 0.979168,0.120587 -0.406175,0.145728 -0.769471,0.014 -1.398881,-0.0058 -1.398881,-0.04393 0,-0.122516 0.498335,-0.181346 1.13533,-0.156062 z m 4.385781,0.05891 c 0.210293,0.0087 0.25304,0.05144 0.109037,0.109038 -0.130317,0.05208 -0.285758,0.04603 -0.345717,-0.01394 -0.05999,-0.06008 0.04638,-0.102685 0.23668,-0.09509 z m 96.382233,0.03721 c 0.49639,0.0013 0.67799,0.03652 0.40359,0.07803 v 5.3e-4 c -0.2744,0.04099 -0.68022,0.03975 -0.90227,-0.0031 -0.22202,-0.04275 0.002,-0.0764 0.49868,-0.07545 z m -63.091243,0.157612 c 0.248256,0 0.349935,0.04087 0.225827,0.09095 -0.1241,0.05008 -0.327536,0.05008 -0.451652,0 -0.1241,-0.04998 -0.02241,-0.09095 0.225825,-0.09095 z m -91.2538629,0.0067 c 0.2978639,0.0036 0.3978508,0.04412 0.2222087,0.08992 -0.175641,0.04576 -0.4193511,0.04279 -0.541569,-0.0067 -0.122219,-0.04941 0.0215,-0.0861 0.3193603,-0.0832 z m -1.1735718,0.0067 c 0.3475019,0 0.4900117,0.03726 0.3162599,0.08268 -0.1737511,0.04542 -0.4582528,0.04542 -0.6320029,0 -0.1737579,-0.04532 -0.031768,-0.08268 0.315743,-0.08268 z M 30.085382,14.91253 c 0.210294,0.0087 0.253048,0.05134 0.109037,0.109038 -0.13031,0.05208 -0.286262,0.04551 -0.346232,-0.01447 -0.05999,-0.06008 0.0469,-0.102169 0.237195,-0.09457 z m 5.235339,0 c 0.210294,0.0087 0.253048,0.05134 0.109038,0.109038 -0.13031,0.05208 -0.286263,0.04551 -0.346233,-0.01447 -0.05999,-0.06008 0.04689,-0.102169 0.237195,-0.09457 z m 22.745382,0 c 0.210296,0.0087 0.253048,0.05134 0.109038,0.109038 -0.130318,0.05208 -0.286261,0.04551 -0.346232,-0.01447 -0.05999,-0.06008 0.04689,-0.102169 0.237194,-0.09457 z m -41.806234,0.01394 c 0.248237,0 0.349934,0.04139 0.225826,0.09147 -0.124116,0.05008 -0.327545,0.05008 -0.451652,0 -0.124109,-0.04998 -0.0224,-0.09147 0.225826,-0.09147 z m 42.69352,0.0067 c 0.297862,0.0036 0.397848,0.04412 0.222207,0.08992 -0.175641,0.04576 -0.419348,0.04279 -0.541567,-0.0067 -0.122219,-0.04941 0.02148,-0.087 0.31936,-0.0832 z m 1.35392,0.01394 c 0.446762,0 0.629571,0.03552 0.406178,0.07855 -0.223396,0.04304 -0.588957,0.04304 -0.812353,0 -0.223396,-0.04303 -0.04061,-0.07855 0.406175,-0.07855 z m -53.7052489,0.0067 c 0.5957258,0.0011 0.8179718,0.03475 0.4935098,0.07493 -0.324462,0.04009 -0.8118801,0.03968 -1.083138,-0.0016 -0.2712631,-0.04113 -0.00609,-0.07433 0.5896282,-0.07338 z m 39.4441039,0.01498 c 1.340382,0 1.888723,0.02829 1.218531,0.06304 -0.670185,0.03475 -1.766877,0.03475 -2.43706,0 -0.670191,-0.03475 -0.121845,-0.06304 1.218529,-0.06304 z m 104.185896,0.321945 c 0.46026,-0.01736 1.06954,0.08992 1.35392,0.238228 l 0.51676,0.26975 -0.58652,0.0011 c -0.32268,5.29e-4 -0.58653,-0.07539 -0.58653,-0.168982 0,-0.09358 -0.34543,-0.201271 -0.7674,-0.23926 l -0.76739,-0.06925 z m -1.80403,0.02016 c 0.14801,0.0087 0.28781,0.03454 0.39223,0.08165 0.34635,0.15626 0.2986,0.186891 -0.38654,0.253732 -0.42938,0.04183 -0.81835,0.01498 -0.86455,-0.05995 -0.10712,-0.173286 0.41484,-0.301493 0.85886,-0.275434 z m 5.29942,0.128675 c 0.3475,0 0.632,0.03205 0.632,0.07079 0,0.03878 -0.2845,0.103619 -0.632,0.14418 -0.34751,0.04053 -0.63149,0.0085 -0.63149,-0.0708 0,-0.07934 0.28398,-0.144176 0.63149,-0.144176 z m 1.15342,0.590661 c 0.0152,0.01521 -0.0237,0.06485 -0.11214,0.153995 -0.12245,0.123375 -0.26841,0.178589 -0.32401,0.122989 -0.0556,-0.05557 0.0447,-0.156485 0.22272,-0.224274 0.12865,-0.04899 0.19821,-0.06793 0.21343,-0.05271 z m -55.8059,0.172082 c 0.065,-7.94e-4 0.127887,0.0024 0.187587,0.0093 1.180403,0.138518 1.116463,1.263156 -0.09974,1.741496 -1.080799,0.424638 -2.715133,0.284914 -2.655134,-0.227378 0.075,-0.63868 1.590686,-1.509284 2.567284,-1.522904 z M 30.987652,16.53722 c 0.210301,0.0087 0.253042,0.05134 0.109038,0.109038 -0.130316,0.05208 -0.286263,0.04551 -0.346233,-0.01447 -0.05999,-0.05998 0.0469,-0.102169 0.237195,-0.09457 z m 24.997958,0.166399 c 0.20442,0 0.323781,0.07767 0.265099,0.172599 -0.05868,0.09492 -0.225803,0.126777 -0.371551,0.0708 -0.373166,-0.143187 -0.329433,-0.243396 0.106452,-0.243396 z M 15.66559,16.7708 c 0.03272,0.01442 0.05271,0.04974 0.05271,0.102319 0,0.105106 -0.08106,0.191201 -0.180351,0.191201 -0.09929,0 -0.180868,-0.03578 -0.180868,-0.07958 0,-0.04379 0.08158,-0.129884 0.180868,-0.191204 0.04965,-0.03069 0.09492,-0.03717 0.127641,-0.02273 z m 25.778789,0.11317 c 0.2148,0.003 0.433573,0.02609 0.652673,0.07338 1.7234,0.371642 1.707813,2.126425 0.06821,2.869595 -1.46225,0.520128 -1.576735,0.305599 -3.003435,-0.02376 -1.520799,-1.035619 0.205999,-2.94535 2.282549,-2.919201 z m -27.606068,0.01394 c 0.210301,0.0087 0.253041,0.05134 0.109037,0.109038 v 5.29e-4 c -0.130316,0.05208 -0.286258,0.04551 -0.346232,-0.01447 -0.05999,-0.05998 0.0469,-0.102685 0.237195,-0.09509 z m 68.77875,0 c 0.210296,0.0087 0.25305,0.05134 0.109038,0.109038 v 5.29e-4 c -0.130308,0.05208 -0.285737,0.04551 -0.345716,-0.01447 -0.05998,-0.05998 0.04638,-0.102685 0.236678,-0.09509 z m -37.112465,0.01447 c 0.248232,0 0.349936,0.04087 0.225825,0.09095 -0.124108,0.05008 -0.327543,0.05008 -0.451651,0 -0.124108,-0.05008 -0.02239,-0.09095 0.225826,-0.09095 z m 14.080795,0 c 0.248243,0 0.349935,0.04087 0.225824,0.09095 -0.124108,0.05008 -0.327543,0.05008 -0.451651,0 -0.124108,-0.05008 -0.02238,-0.09095 0.225827,-0.09095 z m 35.743555,0.0011 c 1.14209,-0.01233 1.618147,0.03792 1.425753,0.150379 -0.173191,0.101309 -0.859753,0.108773 -1.714625,0.0186 l -1.426268,-0.150378 z m -2.617927,0.0057 c 0.297862,0.0036 0.397862,0.04412 0.222207,0.08992 -0.175643,0.04576 -0.419348,0.04279 -0.541567,-0.0067 -0.122222,-0.04941 0.02151,-0.087 0.31936,-0.0832 z m -13.77177,0.0047 c 0.045,0.0011 0.08892,0.0043 0.133324,0.0083 0.600001,0.0562 1.31817,0.453699 1.595768,0.88315 0.403,0.623429 0.336389,0.913045 -0.33021,1.436605 -1.164903,0.914861 -3.689123,0.924304 -4.066419,0.01551 -0.390501,-0.940779 1.281436,-2.374358 2.667537,-2.34301 z M 132.66,16.960998 c 0.9593,0.01691 1.80038,0.456425 1.83658,1.270206 0.02,0.448271 -0.33712,1.036 -0.79271,1.306381 -1.19981,0.71197 -2.88233,0.685905 -3.55483,-0.0553 -0.4766,-0.525288 -0.44642,-0.806436 0.16589,-1.546159 0.5598,-0.676359 1.49857,-0.990052 2.34507,-0.975132 z M 30.085382,17.25917 c 0.210294,0.0087 0.253048,0.05144 0.109037,0.109038 -0.13031,0.05208 -0.286262,0.04603 -0.346232,-0.01394 -0.05999,-0.06008 0.0469,-0.102685 0.237195,-0.09508 z m 38.089665,0 c 0.210306,0.0087 0.253558,0.05144 0.109556,0.109038 -0.130321,0.05208 -0.286274,0.04603 -0.346234,-0.01394 -0.05999,-0.06008 0.04638,-0.102685 0.236678,-0.09508 z m 86.506863,0.08423 c 0.0736,0.01392 0.15581,0.04586 0.2279,0.09147 0.20469,0.129493 0.17293,0.166566 -0.14418,0.168466 -0.41755,0.0028 -0.51535,-0.08888 -0.262,-0.245462 0.0396,-0.02447 0.10467,-0.0284 0.17828,-0.01447 z m 2.47582,0.117306 c 0.29791,0.0036 0.39785,0.04412 0.22221,0.08992 -0.17564,0.04576 -0.41935,0.04279 -0.54157,-0.0067 -0.12221,-0.04941 0.0215,-0.087 0.31936,-0.0832 z m -1.7601,0.512111 c 0.93027,0.0051 1.00319,0.03174 0.70332,0.2589 -0.23626,0.179002 -0.46147,0.205637 -0.76585,0.08992 -0.23708,-0.09007 -0.55352,-0.116837 -0.70331,-0.05943 -0.14979,0.05748 -0.27234,0.01431 -0.27234,-0.0956 0,-0.123629 0.3962,-0.197588 1.03818,-0.193789 z m -19.45204,0.02273 c 0.24827,0 0.34991,0.04087 0.22582,0.09095 -0.1241,0.05008 -0.32755,0.05008 -0.45165,0 -0.12411,-0.05008 -0.0224,-0.09095 0.22583,-0.09095 z m -83.295177,0.166399 c 0.210293,0.0087 0.253042,0.05134 0.109037,0.109037 -0.130315,0.05208 -0.28626,0.04551 -0.346231,-0.01447 -0.05999,-0.05998 0.04689,-0.102169 0.237194,-0.09457 z m 48.740697,0.360701 c 0.21029,0.0087 0.25304,0.05144 0.10904,0.109038 v 5.29e-4 c -0.13032,0.05208 -0.28574,0.04551 -0.34572,-0.01447 -0.06,-0.05998 0.0464,-0.102682 0.23668,-0.09508 z m 53.70111,0.34675 c 0.20442,0 0.32134,0.08158 0.25994,0.180866 -0.0614,0.09931 -0.2285,0.180351 -0.37156,0.180351 -0.14307,0 -0.25993,-0.08106 -0.25993,-0.180351 0,-0.0993 0.16712,-0.180866 0.37155,-0.180866 z M 17.523874,19.439906 c 0.248247,0 0.349418,0.04087 0.225309,0.09095 -0.124108,0.05008 -0.327026,0.05008 -0.451135,0 -0.124114,-0.05008 -0.02239,-0.09095 0.225826,-0.09095 z m 7.841899,0.873847 c 0.651229,0 1.183907,0.07922 1.183907,0.176218 0,0.09702 -0.487702,0.169831 -1.084171,0.161229 -0.596463,-0.0084 -1.129113,-0.08758 -1.183908,-0.176215 -0.05476,-0.08863 0.432948,-0.161232 1.084172,-0.161232 z m 4.523755,0 c 0.269106,0 0.424748,0.07757 0.361218,0.180351 -0.06137,0.0993 -0.224004,0.180869 -0.361218,0.180869 -0.137208,0 -0.299878,-0.08158 -0.361218,-0.180869 -0.06353,-0.102823 0.09211,-0.180351 0.361218,-0.180351 z m 7.592818,0 c 0.254076,0 0.416302,0.07385 0.360702,0.163814 -0.0556,0.08998 -0.263509,0.121137 -0.461987,0.06925 -0.496719,-0.129889 -0.451845,-0.233061 0.101285,-0.233061 z m -1.409733,0.0026 c 0.431432,0.0019 0.591044,0.05754 0.439767,0.153477 -0.130528,0.08274 -0.435159,0.112845 -0.676962,0.06666 -0.644285,-0.123171 -0.536718,-0.223943 0.237195,-0.220141 z m 13.553694,0.0031 c 0.418764,0.0048 0.439891,0.02951 0.161232,0.191719 -0.176284,0.102566 -0.541848,0.161454 -0.812353,0.130223 -0.410765,-0.04734 -0.437401,-0.07916 -0.161232,-0.192236 0.18187,-0.07449 0.547431,-0.132609 0.812353,-0.129706 z m -31.997013,0.0088 c 0.210302,0.0087 0.253041,0.05134 0.109037,0.109037 -0.130317,0.05208 -0.286258,0.04551 -0.346232,-0.01447 -0.05999,-0.05998 0.0469,-0.102168 0.237195,-0.09457 z m 23.894666,0.0072 c 0.742497,-0.01635 0.933153,0.02959 0.77618,0.186552 -0.151557,0.15158 -0.418602,0.157459 -0.983919,0.0217 l -0.775663,-0.186581 z m -29.325342,0.01344 c 0.297861,0.0036 0.39785,0.04412 0.222208,0.08992 -0.175643,0.04576 -0.41935,0.04279 -0.541569,-0.0067 -0.122218,-0.04941 0.02149,-0.0861 0.319361,-0.0832 z m 3.970817,0 c 0.297859,0.0036 0.397858,0.04412 0.222209,0.08992 -0.175642,0.04576 -0.419345,0.04279 -0.541569,-0.0067 -0.122219,-0.04941 0.0215,-0.0861 0.31936,-0.0832 z m 5.776908,0 c 0.297858,0.0036 0.398366,0.04412 0.222726,0.08992 -0.17565,0.04576 -0.419351,0.04279 -0.541569,-0.0067 -0.122226,-0.04941 0.02098,-0.0861 0.318843,-0.0832 z m 22.734014,0.0031 c 0.681226,-0.02148 1.382722,0.02373 1.46451,0.156065 0.05966,0.09653 -0.508929,0.166915 -1.351855,0.166915 -0.800161,0 -1.454692,-0.03499 -1.454692,-0.07803 0,-0.134935 0.660811,-0.223456 1.342037,-0.244946 z m 12.308294,0.08268 c 0.511963,0.0027 0.971992,0.03123 0.972031,0.08372 5.1e-5,0.06289 -0.141991,0.144997 -0.315743,0.182417 -0.336087,0.07246 -2.247087,-0.118893 -1.940965,-0.194302 0.208534,-0.05137 0.772711,-0.07453 1.284677,-0.07183 z m 7.741645,0.05943 c 0.148931,0 0.270785,0.07901 0.270785,0.175183 0,0.09616 -0.121854,0.127926 -0.270785,0.0708 -0.148929,-0.05715 -0.270785,-0.135625 -0.270785,-0.174667 0,-0.03903 0.121856,-0.07131 0.270785,-0.07131 z m 4.07262,0 c 0.20442,0 0.323263,0.07819 0.264584,0.173117 -0.05868,0.09492 -0.225804,0.126775 -0.371555,0.0708 -0.373158,-0.14319 -0.328909,-0.243914 0.106971,-0.243914 z m 11.699029,0 c 0.203181,0 0.22339,0.05359 0.07596,0.201022 -0.110455,0.110501 -0.294066,0.169865 -0.408244,0.131773 -0.269137,-0.08972 -0.02658,-0.332795 0.33228,-0.332795 z m -53.124408,0.01443 c 0.210301,0.0087 0.25304,0.05134 0.109037,0.109037 -0.130317,0.05208 -0.286267,0.04603 -0.346232,-0.01394 -0.05999,-0.06008 0.0469,-0.102685 0.237195,-0.09508 z m 38.887033,0.02791 c 0.347504,0 0.490019,0.03675 0.316259,0.08216 -0.173752,0.04542 -0.458251,0.04542 -0.632002,0 -0.17375,-0.04532 -0.03176,-0.08216 0.315743,-0.08216 z m 42.42222,0.347266 c 0.2483,0 0.34994,0.04087 0.22582,0.09095 -0.12411,0.05008 -0.32702,0.05008 -0.45113,0 -0.12411,-0.04998 -0.0229,-0.09095 0.22531,-0.09095 z m 7.59333,0.146243 c -1.69467,3.129796 -2.0303,5.519844 -0.87436,6.255949 2.7876,1.77519 8.46143,-0.943547 8.61343,-4.127397 0.047,-0.980448 -0.13757,-1.214385 -0.98547,-1.247984 -0.76592,-0.03036 -1.26504,-0.286785 -1.54048,-0.747758 -0.48421,0.02915 -1.13922,0.04628 -1.8495,0.04341 -1.40898,-0.0057 -2.88638,-0.07414 -3.28352,-0.151929 -0.043,-0.0084 -0.0614,-0.01646 -0.0801,-0.02429 z m 39.86217,0.115755 c 1.42779,0.008 2.13319,0.121534 2.35955,0.35967 0.25762,0.27102 0.22206,0.284072 -0.44184,0.166915 -0.39715,-0.0701 -0.80297,-0.192911 -0.90227,-0.273371 -0.0993,-0.08036 -0.6275,-0.07379 -1.17357,0.01447 -0.54609,0.08834 -1.38728,0.125524 -1.86965,0.08268 v -5.29e-4 c -1.37862,-0.122377 -1.2131,-0.275225 0.35036,-0.323495 0.64542,-0.01992 1.20149,-0.02903 1.67742,-0.02635 z m -21.55579,0.04858 c 0.23854,-0.01331 0.68896,-0.0058 1.53582,0.01188 2.11971,0.04431 2.07693,0.190685 -0.0558,0.190685 -0.95977,0 -1.74511,-0.04073 -1.74511,-0.09043 0,-0.06499 0.0266,-0.09881 0.2651,-0.112136 z m -90.727798,0.02222 c 0.09929,0 0.230631,0.08106 0.291971,0.18035 0.06137,0.09929 0.03056,0.180351 -0.06873,0.180351 -0.09929,0 -0.231149,-0.08107 -0.292489,-0.180351 -0.06136,-0.09931 -0.03004,-0.18035 0.06925,-0.18035 z m 102.121938,0.01394 c 0.2103,0.0087 0.25305,0.05134 0.10903,0.109038 v 5.29e-4 c -0.13032,0.05208 -0.28571,0.04551 -0.34571,-0.01447 -0.06,-0.05998 0.0464,-0.102685 0.23668,-0.09509 z m 2.34662,0 c 0.2103,0.0087 0.25305,0.05134 0.10904,0.109038 v 5.29e-4 c -0.1303,0.05208 -0.28623,0.04551 -0.34623,-0.01447 -0.06,-0.05998 0.0469,-0.102685 0.23719,-0.09509 z M 40.555544,21.411366 c 0.210302,0.0087 0.253047,0.05134 0.109037,0.109038 -0.13031,0.05208 -0.286262,0.04551 -0.346232,-0.01447 -0.05999,-0.06008 0.0469,-0.102169 0.237195,-0.09457 z m 3.865914,0.555522 c 0.248233,0 0.349934,0.04087 0.225826,0.09095 -0.124108,0.05008 -0.327538,0.05008 -0.451652,0 -0.124109,-0.04998 -0.02239,-0.09095 0.225826,-0.09095 z m 101.559182,0.166397 c 0.2103,0.0087 0.25305,0.05134 0.10903,0.109037 -0.13032,0.05208 -0.28571,0.04603 -0.34571,-0.01394 -0.06,-0.06008 0.0464,-0.102685 0.23668,-0.09509 z m -1.99988,0.03152 c 0.39721,0.0021 0.53875,0.03893 0.31419,0.08216 -0.22456,0.04304 -0.54983,0.04151 -0.72244,-0.0036 -0.17259,-0.04523 0.0111,-0.08045 0.40825,-0.07855 z m 14.52108,0.146759 c 0.47468,-0.0093 0.57248,0.03832 0.41186,0.198956 -0.15583,0.155787 -0.31804,0.158663 -0.6227,0.01188 -0.38699,-0.186463 -0.37404,-0.199411 0.21084,-0.210841 z m -113.020498,0.0067 c 0.01974,0.01596 -0.01169,0.06388 -0.0894,0.148313 -0.1138,0.123721 -0.470076,0.187528 -0.812353,0.145727 -0.495586,-0.06056 -0.519186,-0.07983 -0.127641,-0.103352 0.264919,-0.0159 0.630482,-0.08146 0.812354,-0.145727 0.126772,-0.04479 0.197311,-0.0609 0.217041,-0.04496 z m 22.568649,0.02997 c 0.01521,0.01521 -0.02365,0.06485 -0.112138,0.153998 -0.12246,0.123376 -0.268412,0.179105 -0.324011,0.123505 -0.05558,-0.05557 0.0447,-0.156485 0.222726,-0.224274 0.12864,-0.04898 0.198199,-0.06845 0.213423,-0.05323 z m 86.670679,0.0052 c 0.54614,0 0.76914,0.03413 0.4961,0.07545 -0.27305,0.04132 -0.71967,0.04132 -0.99271,0 -0.27304,-0.04142 -0.0495,-0.07545 0.49661,-0.07545 z m -113.51762,0.0093 c 0.117612,-0.01027 0.345421,0.0061 0.69143,0.04754 1.242595,0.148859 1.385482,0.25133 0.345716,0.247531 -0.438521,-0.0016 -0.919217,-0.0844 -1.068152,-0.184486 -0.09436,-0.06341 -0.08661,-0.100317 0.03101,-0.110588 z m 7.00939,0.159162 c 0.347504,0 0.490014,0.03726 0.316262,0.08268 -0.173752,0.04542 -0.458253,0.04542 -0.632005,0 -0.173749,-0.04542 -0.03176,-0.08268 0.315743,-0.08268 z m 52.8929,0.18087 c 0.34753,0 0.48999,0.03674 0.31626,0.08216 -0.17377,0.04542 -0.45825,0.04542 -0.63201,0 -0.17376,-0.04532 -0.0318,-0.08216 0.31575,-0.08216 z m -59.572078,0.166915 c 0.248233,0 0.349934,0.04087 0.225826,0.09095 -0.124108,0.05008 -0.327545,0.05008 -0.451652,0 -0.124108,-0.04998 -0.02239,-0.09095 0.225826,-0.09095 z m 115.534038,0 c 0.24834,0 0.34993,0.04087 0.22582,0.09095 -0.12411,0.05008 -0.32753,0.05008 -0.45165,0 -0.1241,-0.04998 -0.0224,-0.09095 0.22583,-0.09095 z m -33.83256,0.166396 c 0.2103,0.0087 0.25304,0.05134 0.10903,0.109037 -0.1303,0.05208 -0.28623,0.04551 -0.34623,-0.01447 -0.06,-0.05998 0.0469,-0.102169 0.2372,-0.09457 z m -97.662778,0.180351 c 0.210301,0.0087 0.253041,0.05134 0.109037,0.109037 -0.130318,0.05208 -0.285741,0.04603 -0.345715,-0.01394 -0.05999,-0.05998 0.04638,-0.102685 0.236678,-0.09509 z m 15.705502,0 c 0.210302,0.0087 0.25304,0.05134 0.109037,0.109037 -0.130317,0.05208 -0.285756,0.04603 -0.345715,-0.01394 -0.05999,-0.05998 0.04638,-0.102685 0.236678,-0.09509 z m 3.790983,0 c 0.210294,0.0087 0.253047,0.05134 0.109037,0.109037 -0.13031,0.05208 -0.286262,0.04603 -0.346232,-0.01394 -0.05999,-0.05998 0.04689,-0.102685 0.237195,-0.09509 z m 23.994401,0.201538 c 0.297865,0.0036 0.397851,0.04412 0.222208,0.08992 -0.175639,0.04576 -0.419349,0.04279 -0.541568,-0.0067 -0.122216,-0.04942 0.02151,-0.087 0.31936,-0.0832 z m -2.692858,0.520383 c 0.210302,0.0087 0.253048,0.05134 0.109038,0.109037 -0.13031,0.05208 -0.285748,0.04603 -0.345715,-0.01394 -0.05998,-0.05998 0.04638,-0.102684 0.236677,-0.09508 z M 45.143378,24.31401 c 0.248234,0 0.349934,0.04087 0.225826,0.09095 -0.124109,0.05008 -0.327027,0.05008 -0.451136,0 -0.124108,-0.04998 -0.02291,-0.09095 0.22531,-0.09095 z m 1.674316,0.173633 c 0.292201,-0.05444 0.414962,0.05374 0.414962,0.338997 0,0.198575 -0.10437,0.36122 -0.232026,0.36122 -0.127656,0 -0.232029,-0.07546 -0.232029,-0.167434 0,-0.092 -0.14251,-0.195953 -0.316259,-0.230992 -0.293688,-0.05921 -0.292397,-0.07289 0.01497,-0.193786 0.136792,-0.0538 0.252966,-0.08986 0.350367,-0.108005 z m -20.882963,0.01654 c 0.21657,-0.01246 0.356158,0.100669 0.208255,0.248563 h -5.29e-4 c -0.05842,0.05837 -0.254626,0.07094 -0.436149,0.0279 -0.315112,-0.0748 -0.315503,-0.08486 -0.0062,-0.219106 0.08155,-0.0354 0.162421,-0.05321 0.234612,-0.05736 z m 14.642517,0.05064 c 0.421967,0.006 0.775146,0.04229 0.775146,0.104902 0,0.09185 -0.304636,0.173135 -0.676961,0.179835 -0.543046,0.01016 -0.605368,0.04349 -0.315743,0.167949 0.325131,0.139748 0.313464,0.156517 -0.113688,0.167947 v -5.29e-4 c -0.260887,0.007 -0.575061,-0.108934 -0.698665,-0.257866 -0.123572,-0.14892 -0.194593,-0.277653 -0.157613,-0.285255 0.274849,-0.05867 0.765557,-0.08301 1.187524,-0.077 z m 36.293394,0.09405 c 0.22339,-0.0016 0.406175,0.07848 0.406175,0.177766 0,0.0993 -0.06096,0.178718 -0.135393,0.177768 -0.07447,-0.0016 -0.257246,-0.08152 -0.406175,-0.177768 -0.218966,-0.141571 -0.193053,-0.175866 0.135393,-0.177766 z m -69.2681262,0.0026 c 0.095322,-0.003 0.1731158,0.05018 0.1731158,0.161232 0,0.09139 -0.249524,0.220808 -0.5544881,0.287838 -0.3049547,0.06694 -0.6028849,0.0735 -0.661975,0.01447 -0.059092,-0.05907 0.063587,-0.107487 0.2728515,-0.107487 0.209259,0 0.4311365,-0.08106 0.4924764,-0.18035 0.07001,-0.113305 0.1826969,-0.172667 0.2780194,-0.175703 z m 35.3694182,5.29e-4 c 0.07947,-0.01431 0.194789,0.04292 0.281636,0.183449 0.07886,0.127646 0.188291,0.130263 0.335897,0.0078 0.120437,-0.09988 0.399576,-0.134697 0.620118,-0.077 0.358319,0.09371 0.369792,0.128072 0.107487,0.319876 -0.16145,0.118047 -0.523624,0.180845 -0.804603,0.139525 -0.280985,-0.04124 -0.554495,-0.188462 -0.607714,-0.327109 -0.05606,-0.14605 -0.01229,-0.232193 0.06718,-0.246497 z m 10.581266,0.0088 c 0.210302,0.0087 0.253048,0.05134 0.109038,0.109037 -0.13031,0.05208 -0.286264,0.04551 -0.346231,-0.01447 -0.05999,-0.05998 0.0469,-0.102169 0.237193,-0.09457 z m 26.356015,0 c 0.210304,0.0087 0.253052,0.05134 0.109037,0.109037 -0.130313,0.05208 -0.285734,0.04551 -0.345715,-0.01447 -0.05998,-0.05998 0.04638,-0.102169 0.236678,-0.09457 z m 4.769218,0.01394 c 0.24825,0 0.349416,0.04087 0.225311,0.09095 -0.124108,0.05008 -0.327031,0.05008 -0.451136,0 -0.124116,-0.04998 -0.02238,-0.09095 0.225825,-0.09095 z m 8.484237,0 c 0.248256,0 0.349417,0.04087 0.225309,0.09095 -0.124108,0.05008 -0.327017,0.05008 -0.451136,0 -0.124108,-0.04998 -0.02241,-0.09095 0.225827,-0.09095 z m -28.432374,0.0067 c 0.297865,0.0036 0.397857,0.04412 0.222208,0.08992 -0.175641,0.04576 -0.419349,0.04279 -0.541568,-0.0067 -0.122219,-0.04942 0.02151,-0.087 0.31936,-0.0832 z m -26.446448,0.0067 c 0.347502,0 0.489495,0.03726 0.315743,0.08268 -0.173751,0.04542 -0.457734,0.04542 -0.631486,0 -0.173751,-0.04532 -0.03176,-0.08268 0.315743,-0.08268 z m 61.483071,0.152963 c 0.210283,0.0087 0.253041,0.05144 0.109038,0.109038 -0.13031,0.05208 -0.286253,0.04603 -0.346234,-0.01394 -0.05998,-0.05998 0.04689,-0.102684 0.237196,-0.09508 z M 38.2084,25.021532 c 0.210303,0.0087 0.253041,0.05134 0.109037,0.109037 -0.130316,0.05208 -0.285745,0.04603 -0.345715,-0.01394 -0.05999,-0.05998 0.04638,-0.102682 0.236678,-0.09508 z m 67.33594,0 c 0.21031,0.0087 0.25306,0.05134 0.10904,0.109037 -0.13031,0.05208 -0.28573,0.04603 -0.34572,-0.01394 -0.06,-0.05998 0.0464,-0.102682 0.23668,-0.09508 z m -84.139049,0.02119 c 0.297867,0.0036 0.39785,0.04412 0.222209,0.08992 -0.175648,0.04576 -0.41935,0.04279 -0.541569,-0.0067 -0.122218,-0.04942 0.0215,-0.087 0.31936,-0.0832 z m -2.25671,0.0067 c 0.347512,0 0.489495,0.03726 0.315743,0.08268 -0.173759,0.04542 -0.457728,0.04542 -0.631486,0 -0.173752,-0.04532 -0.03176,-0.08268 0.315743,-0.08268 z m -8.033101,0.0098 c 0.496434,0.0013 0.678002,0.03652 0.403593,0.07803 -0.274403,0.04109 -0.680758,0.04026 -0.902788,-0.0026 -0.22203,-0.04285 0.0028,-0.0764 0.499195,-0.07545 z m 116.05442,0.128674 c 0.14893,0 0.32059,0.08106 0.38189,0.180351 0.0614,0.0993 -0.0102,0.180867 -0.15917,0.180867 -0.14893,0 -0.32049,-0.08158 -0.38188,-0.180867 -0.0614,-0.0993 0.0102,-0.180351 0.15916,-0.180351 z m -87.156442,0.194818 c 0.2103,0.0087 0.253047,0.05134 0.109037,0.109038 -0.13031,0.05208 -0.285745,0.04551 -0.345715,-0.01447 -0.05999,-0.05998 0.04638,-0.102169 0.236678,-0.09457 z m 93.766372,0.01447 c 0.24836,0 0.34941,0.04087 0.22531,0.09095 -0.12411,0.05008 -0.32704,0.05008 -0.45113,0 -0.12412,-0.05008 -0.0224,-0.09095 0.22582,-0.09095 z m 1.44487,0.01291 c 0.34751,0 0.4895,0.03726 0.31575,0.08268 -0.17376,0.04542 -0.45773,0.04542 -0.63149,0 -0.17374,-0.04532 -0.0318,-0.08268 0.31574,-0.08268 z M 7.1586151,25.743969 c 0.210303,0.0087 0.2530483,0.05134 0.1090374,0.109037 -0.1303102,0.05208 -0.2857455,0.04551 -0.3457154,-0.01447 -0.059981,-0.05998 0.046383,-0.102169 0.236678,-0.09457 z m 18.7745649,0 c 0.210303,0.0087 0.253048,0.05134 0.109038,0.109037 -0.13031,0.05208 -0.286269,0.04551 -0.346233,-0.01447 -0.05999,-0.05998 0.0469,-0.102169 0.237195,-0.09457 z m -9.944096,0.02066 c 0.29786,0.0036 0.39785,0.04412 0.222209,0.08992 -0.175642,0.04576 -0.419351,0.04279 -0.541569,-0.0067 -0.122218,-0.04942 0.02149,-0.087 0.31936,-0.0832 z m -2.797762,0.0067 c 0.347504,0 0.489495,0.03726 0.315743,0.08268 -0.173752,0.04542 -0.457734,0.04542 -0.631486,0 -0.173752,-0.04532 -0.03176,-0.08268 0.315743,-0.08268 z m 26.175147,0 c 0.347504,0 0.490012,0.03726 0.31626,0.08268 -0.173752,0.04542 -0.458252,0.04542 -0.632003,0 -0.173752,-0.04532 -0.03176,-0.08268 0.315743,-0.08268 z m 79.643201,1.060403 c 0.13448,0 0.34868,0.05347 0.59945,0.161229 0.32238,0.138509 0.3087,0.15662 -0.12506,0.167949 -0.26718,0.007 -0.53597,-0.06866 -0.59738,-0.167949 -0.0666,-0.107757 -0.0115,-0.161229 0.12299,-0.161229 z m -56.174865,0.0093 c 0.248232,0 0.349417,0.04087 0.225309,0.09095 -0.124108,0.05008 -0.327025,0.05008 -0.451136,0 -0.124106,-0.04998 -0.02238,-0.09095 0.225827,-0.09095 z m -37.357411,0.151929 c 0.105133,0 0.140918,0.08158 0.07958,0.180869 -0.06136,0.0993 -0.147396,0.18035 -0.191203,0.18035 -0.0438,0 -0.07958,-0.08106 -0.07958,-0.18035 0,-0.0993 0.08606,-0.180869 0.191203,-0.180869 z M 5.327719,26.99349 c 0.1547911,-3e-6 0.2816365,0.08106 0.2816365,0.18035 0,0.0993 -0.076595,0.180351 -0.1700154,0.180351 -0.093433,0 -0.2197896,-0.08106 -0.2811198,-0.180351 -0.061359,-0.0993 0.014708,-0.18035 0.1694987,-0.18035 z m 18.018022,0.0026 c 0.802364,0.0038 1.217967,0.273846 0.643372,0.418062 -0.235819,0.05926 -0.609006,0.06028 -0.829407,0.0026 -0.600515,-0.15704 -0.482464,-0.424444 0.186035,-0.420645 z m -10.145634,0.0088 c 0.585198,0.01074 0.596437,0.02199 0.186035,0.186036 v -5.29e-4 c -0.289222,0.11561 -0.49952,0.111805 -0.622701,-0.01138 -0.127683,-0.127741 0.0092,-0.18175 0.436666,-0.174151 z m -1.848466,5.29e-4 c 0.04028,0.01767 -0.02166,0.08377 -0.204639,0.190169 -0.181202,0.106125 -0.367465,0.153945 -0.413928,0.107487 -0.04648,-0.04648 0.04744,-0.135514 0.208773,-0.197405 0.22698,-0.08711 0.369511,-0.117923 0.409794,-0.100251 z m 3.569808,0.0021 c 0.210302,0.0087 0.253043,0.05134 0.109037,0.109037 -0.130316,0.05208 -0.286258,0.04551 -0.346232,-0.01447 -0.05998,-0.05998 0.0469,-0.102169 0.237195,-0.09457 z m 80.873619,0 c 0.210302,0.0087 0.253037,0.05134 0.109038,0.109037 -0.130326,0.05208 -0.285756,0.04551 -0.345715,-0.01447 -0.05999,-0.05998 0.04638,-0.102169 0.236677,-0.09457 z m -78.946088,0.03084 c 0.706823,-0.01058 1.177526,0.05213 1.117761,0.148829 -0.05677,0.09188 -0.362725,0.157437 -0.679545,0.145727 -0.31682,-0.01175 -0.819901,-0.07875 -1.117761,-0.148828 -0.397057,-0.09341 -0.215528,-0.132308 0.679545,-0.145728 z m 21.848796,0.02222 c 0.03272,-0.01442 0.078,-0.0079 0.127641,0.02273 0.09929,0.06136 0.180351,0.147402 0.180351,0.191204 0,0.0438 -0.08106,0.07958 -0.180351,0.07958 -0.0993,0 -0.180351,-0.08605 -0.180351,-0.191203 0,-0.05256 0.01999,-0.08789 0.05271,-0.10232 z m -18.098637,0.0016 c 2.273172,-0.02669 2.202069,0.149603 -0.09715,0.240813 -0.942937,0.03736 -1.71423,0.0031 -1.714107,-0.07596 1.23e-4,-0.07901 0.815091,-0.153229 1.811259,-0.164849 z m -10.37146,0.125574 c 0.210294,0.0087 0.253047,0.05134 0.109037,0.109037 v 5.29e-4 c -0.13031,0.05208 -0.285745,0.04551 -0.3457156,-0.01447 -0.059986,-0.05998 0.046375,-0.102682 0.2366786,-0.09508 z m -3.3548346,0.194821 c 0.2482411,0 0.349934,0.04139 0.2258262,0.09147 -0.1241142,0.05008 -0.3270274,0.05008 -0.4511353,0 -0.1241081,-0.04998 -0.022916,-0.09147 0.2253091,-0.09147 z m 90.3515926,0.0067 c 0.297916,0.0036 0.397846,0.04412 0.222208,0.08992 -0.175646,0.04576 -0.419343,0.04279 -0.541568,-0.0067 -0.122205,-0.04941 0.02151,-0.087 0.31936,-0.0832 z m 9.040793,0.159679 c 0.21031,0.0087 0.25305,0.05134 0.10904,0.109037 -0.13031,0.05208 -0.28574,0.04551 -0.34572,-0.01447 -0.06,-0.05998 0.0464,-0.102169 0.23668,-0.09457 z" />
  <path
     style="fill:#000000;fill-opacity:1;stroke:none;stroke-width:0.0115687;stroke-linecap:butt;stroke-linejoin:round;stroke-miterlimit:4;stroke-dasharray:none;stroke-dashoffset:0;stroke-opacity:1;paint-order:stroke fill markers"
     d=""
     id="path2278-6" />
  <path
     style="fill:#000000;fill-opacity:1;stroke:none;stroke-width:0.0115687;stroke-linecap:butt;stroke-linejoin:round;stroke-miterlimit:4;stroke-dasharray:none;stroke-dashoffset:0;stroke-opacity:1;paint-order:stroke fill markers"
     d=""
     id="path2318-2" />
  <path
     style="fill:#000000;fill-opacity:1;stroke:none;stroke-width:0.0238514;stroke-linecap:butt;stroke-linejoin:round;stroke-miterlimit:4;stroke-dasharray:none;stroke-dashoffset:0;stroke-opacity:1;paint-order:stroke fill markers"
     d=""
     id="path2278" />
  <path
     style="fill:#000000;fill-opacity:1;stroke:none;stroke-width:0.0238514;stroke-linecap:butt;stroke-linejoin:round;stroke-miterlimit:4;stroke-dasharray:none;stroke-dashoffset:0;stroke-opacity:1;paint-order:stroke fill markers"
     d=""
     id="path2318" />
  <path
     style="fill:#000000;fill-opacity:1;stroke:none;stroke-width:0.0238514;stroke-linecap:butt;stroke-linejoin:round;stroke-miterlimit:4;stroke-dasharray:none;stroke-dashoffset:0;stroke-opacity:1;paint-order:stroke fill markers"
     d=""
     id="path2278-2" />
  <path
     style="fill:#000000;fill-opacity:1;stroke:none;stroke-width:0.0238514;stroke-linecap:butt;stroke-linejoin:round;stroke-miterlimit:4;stroke-dasharray:none;stroke-dashoffset:0;stroke-opacity:1;paint-order:stroke fill markers"
     d=""
     id="path2318-7" />
</svg>
