<?xml version="1.0" encoding="UTF-8" standalone="no"?>
<!DOCTYPE svg PUBLIC "-//W3C//DTD SVG 1.1//EN"
 "http://www.w3.org/Graphics/SVG/1.1/DTD/svg11.dtd">
<!-- Generated by graphviz version 2.42.4 (0)
 -->
<!-- Title: G Pages: 1 -->
<svg width="1613pt" height="1830pt"
 viewBox="0.00 0.00 1613.00 1830.00" xmlns="http://www.w3.org/2000/svg" xmlns:xlink="http://www.w3.org/1999/xlink">
<g id="graph0" class="graph" transform="scale(1 1) rotate(0) translate(4 1826)">
<title>G</title>
<polygon fill="white" stroke="transparent" points="-4,4 -4,-1826 1609,-1826 1609,4 -4,4"/>
<!-- 1 -->
<g id="node1" class="node">
<title>1</title>
<polygon fill="none" stroke="black" stroke-width="5" points="868.75,-78.25 848.12,-78.25 841.75,-98 835.38,-78.25 814.75,-78.25 831.44,-66.04 825.06,-46.28 841.75,-58.49 858.44,-46.28 852.06,-66.04 868.75,-78.25"/>
</g>
<!-- 2 -->
<g id="node2" class="node">
<title>2</title>
<ellipse fill="none" stroke="black" stroke-width="5" cx="771.92" cy="-88.64" rx="18" ry="18"/>
</g>
<!-- 1&#45;&gt;2 -->
<g id="edge1" class="edge">
<title>1&#45;&gt;2</title>
<path fill="none" stroke="#999999" stroke-width="5" d="M815.75,-78.28C807.06,-80.34 797.59,-82.57 789.68,-84.44"/>
</g>
<!-- 3 -->
<g id="node3" class="node">
<title>3</title>
<ellipse fill="none" stroke="black" stroke-width="5" cx="678.53" cy="-18.09" rx="18" ry="18"/>
</g>
<!-- 2&#45;&gt;3 -->
<g id="edge2" class="edge">
<title>2&#45;&gt;3</title>
<path fill="none" stroke="#999999" stroke-width="5" d="M757.33,-77.61C739.79,-64.36 710.52,-42.25 693.02,-29.03"/>
</g>
<!-- 4 -->
<g id="node4" class="node">
<title>4</title>
<ellipse fill="none" stroke="black" stroke-width="5" cx="559.92" cy="-125.97" rx="18" ry="18"/>
</g>
<!-- 3&#45;&gt;4 -->
<g id="edge3" class="edge">
<title>3&#45;&gt;4</title>
<path fill="none" stroke="#999999" stroke-width="5" d="M664.93,-30.46C642.05,-51.27 596.14,-93.03 573.36,-113.74"/>
</g>
<!-- 5 -->
<g id="node5" class="node">
<title>5</title>
<ellipse fill="none" stroke="black" stroke-width="5" cx="624.77" cy="-190.75" rx="18" ry="18"/>
</g>
<!-- 4&#45;&gt;5 -->
<g id="edge4" class="edge">
<title>4&#45;&gt;5</title>
<path fill="none" stroke="#999999" stroke-width="5" d="M572.73,-138.77C584.1,-150.13 600.62,-166.63 611.99,-177.97"/>
</g>
<!-- 6 -->
<g id="node6" class="node">
<title>6</title>
<ellipse fill="none" stroke="black" stroke-width="5" cx="769.59" cy="-252.59" rx="18" ry="18"/>
</g>
<!-- 5&#45;&gt;6 -->
<g id="edge5" class="edge">
<title>5&#45;&gt;6</title>
<path fill="none" stroke="#999999" stroke-width="5" d="M641.38,-197.84C669.17,-209.7 724.77,-233.45 752.72,-245.38"/>
</g>
<!-- 7 -->
<g id="node7" class="node">
<title>7</title>
<ellipse fill="none" stroke="black" stroke-width="5" cx="827.55" cy="-353.29" rx="18" ry="18"/>
</g>
<!-- 6&#45;&gt;7 -->
<g id="edge6" class="edge">
<title>6&#45;&gt;7</title>
<path fill="none" stroke="#999999" stroke-width="5" d="M778.64,-268.32C789.53,-287.24 807.69,-318.79 818.56,-337.66"/>
</g>
<!-- 8 -->
<g id="node8" class="node">
<title>8</title>
<ellipse fill="none" stroke="black" stroke-width="5" cx="822.08" cy="-510.52" rx="18" ry="18"/>
</g>
<!-- 7&#45;&gt;8 -->
<g id="edge7" class="edge">
<title>7&#45;&gt;8</title>
<path fill="none" stroke="#999999" stroke-width="5" d="M826.92,-371.32C825.87,-401.49 823.77,-461.86 822.72,-492.21"/>
</g>
<!-- 9 -->
<g id="node9" class="node">
<title>9</title>
<ellipse fill="none" stroke="black" stroke-width="5" cx="777" cy="-545.53" rx="18" ry="18"/>
</g>
<!-- 8&#45;&gt;9 -->
<g id="edge8" class="edge">
<title>8&#45;&gt;9</title>
<path fill="none" stroke="#999999" stroke-width="5" d="M807.82,-521.59C802.55,-525.68 796.59,-530.31 791.33,-534.4"/>
</g>
<!-- 10 -->
<g id="node10" class="node">
<title>10</title>
<ellipse fill="none" stroke="black" stroke-width="5" cx="674.9" cy="-467.23" rx="18" ry="18"/>
</g>
<!-- 9&#45;&gt;10 -->
<g id="edge9" class="edge">
<title>9&#45;&gt;10</title>
<path fill="none" stroke="#999999" stroke-width="5" d="M762.37,-534.31C742.96,-519.42 708.9,-493.3 689.5,-478.42"/>
</g>
<!-- 11 -->
<g id="node11" class="node">
<title>11</title>
<ellipse fill="none" stroke="black" stroke-width="5" cx="585.27" cy="-580.48" rx="18" ry="18"/>
</g>
<!-- 10&#45;&gt;11 -->
<g id="edge10" class="edge">
<title>10&#45;&gt;11</title>
<path fill="none" stroke="#999999" stroke-width="5" d="M663.55,-481.57C646.31,-503.35 613.72,-544.54 596.53,-566.25"/>
</g>
<!-- 12 -->
<g id="node12" class="node">
<title>12</title>
<ellipse fill="none" stroke="black" stroke-width="5" cx="689.57" cy="-684.41" rx="18" ry="18"/>
</g>
<!-- 11&#45;&gt;12 -->
<g id="edge11" class="edge">
<title>11&#45;&gt;12</title>
<path fill="none" stroke="#999999" stroke-width="5" d="M598.06,-593.22C618.08,-613.17 656.6,-651.55 676.68,-671.56"/>
</g>
<!-- 13 -->
<g id="node13" class="node">
<title>13</title>
<ellipse fill="none" stroke="black" stroke-width="5" cx="773.78" cy="-714.54" rx="18" ry="18"/>
</g>
<!-- 12&#45;&gt;13 -->
<g id="edge12" class="edge">
<title>12&#45;&gt;13</title>
<path fill="none" stroke="#999999" stroke-width="5" d="M706.62,-690.5C721.23,-695.73 742.17,-703.23 756.77,-708.45"/>
</g>
<!-- 14 -->
<g id="node14" class="node">
<title>14</title>
<ellipse fill="none" stroke="black" stroke-width="5" cx="848.28" cy="-767.6" rx="18" ry="18"/>
</g>
<!-- 13&#45;&gt;14 -->
<g id="edge13" class="edge">
<title>13&#45;&gt;14</title>
<path fill="none" stroke="#999999" stroke-width="5" d="M788.5,-725.02C801.56,-734.33 820.54,-747.85 833.59,-757.14"/>
</g>
<!-- 15 -->
<g id="node15" class="node">
<title>15</title>
<ellipse fill="none" stroke="black" stroke-width="5" cx="804.3" cy="-907.53" rx="18" ry="18"/>
</g>
<!-- 14&#45;&gt;15 -->
<g id="edge14" class="edge">
<title>14&#45;&gt;15</title>
<path fill="none" stroke="#999999" stroke-width="5" d="M842.79,-785.04C834.32,-812 818.14,-863.48 809.71,-890.31"/>
</g>
<!-- 16 -->
<g id="node16" class="node">
<title>16</title>
<ellipse fill="none" stroke="black" stroke-width="5" cx="841.95" cy="-957.28" rx="18" ry="18"/>
</g>
<!-- 15&#45;&gt;16 -->
<g id="edge15" class="edge">
<title>15&#45;&gt;16</title>
<path fill="none" stroke="#999999" stroke-width="5" d="M815.19,-921.92C820.14,-928.46 825.99,-936.19 830.96,-942.75"/>
</g>
<!-- 17 -->
<g id="node17" class="node">
<title>17</title>
<ellipse fill="none" stroke="black" stroke-width="5" cx="800.78" cy="-1033.44" rx="18" ry="18"/>
</g>
<!-- 16&#45;&gt;17 -->
<g id="edge16" class="edge">
<title>16&#45;&gt;17</title>
<path fill="none" stroke="#999999" stroke-width="5" d="M833.22,-973.43C826.19,-986.45 816.35,-1004.64 809.36,-1017.57"/>
</g>
<!-- 18 -->
<g id="node18" class="node">
<title>18</title>
<ellipse fill="none" stroke="black" stroke-width="5" cx="717.51" cy="-1179.32" rx="18" ry="18"/>
</g>
<!-- 17&#45;&gt;18 -->
<g id="edge17" class="edge">
<title>17&#45;&gt;18</title>
<path fill="none" stroke="#999999" stroke-width="5" d="M791.71,-1049.33C775.69,-1077.39 742.58,-1135.4 726.57,-1163.45"/>
</g>
<!-- 19 -->
<g id="node19" class="node">
<title>19</title>
<ellipse fill="none" stroke="black" stroke-width="5" cx="776" cy="-1252.02" rx="18" ry="18"/>
</g>
<!-- 18&#45;&gt;19 -->
<g id="edge18" class="edge">
<title>18&#45;&gt;19</title>
<path fill="none" stroke="#999999" stroke-width="5" d="M729.07,-1193.68C739.32,-1206.43 754.22,-1224.95 764.47,-1237.69"/>
</g>
<!-- 20 -->
<g id="node20" class="node">
<title>20</title>
<ellipse fill="none" stroke="black" stroke-width="5" cx="736.3" cy="-1296.02" rx="18" ry="18"/>
</g>
<!-- 19&#45;&gt;20 -->
<g id="edge19" class="edge">
<title>19&#45;&gt;20</title>
<path fill="none" stroke="#999999" stroke-width="5" d="M763.87,-1265.46C759.04,-1270.82 753.48,-1276.98 748.62,-1282.36"/>
</g>
<!-- 21 -->
<g id="node21" class="node">
<title>21</title>
<ellipse fill="none" stroke="black" stroke-width="5" cx="656.04" cy="-1322.01" rx="18" ry="18"/>
</g>
<!-- 20&#45;&gt;21 -->
<g id="edge20" class="edge">
<title>20&#45;&gt;21</title>
<path fill="none" stroke="#999999" stroke-width="5" d="M718.88,-1301.66C705.42,-1306.02 686.88,-1312.03 673.42,-1316.38"/>
</g>
<!-- 22 -->
<g id="node22" class="node">
<title>22</title>
<ellipse fill="none" stroke="black" stroke-width="5" cx="574.46" cy="-1173.63" rx="18" ry="18"/>
</g>
<!-- 21&#45;&gt;22 -->
<g id="edge21" class="edge">
<title>21&#45;&gt;22</title>
<path fill="none" stroke="#999999" stroke-width="5" d="M647.31,-1306.13C631.69,-1277.72 599.12,-1218.5 583.37,-1189.85"/>
</g>
<!-- 23 -->
<g id="node23" class="node">
<title>23</title>
<ellipse fill="none" stroke="black" stroke-width="5" cx="563.22" cy="-1092.37" rx="18" ry="18"/>
</g>
<!-- 22&#45;&gt;23 -->
<g id="edge22" class="edge">
<title>22&#45;&gt;23</title>
<path fill="none" stroke="#999999" stroke-width="5" d="M571.96,-1155.6C570.1,-1142.13 567.56,-1123.81 565.7,-1110.36"/>
</g>
<!-- 24 -->
<g id="node24" class="node">
<title>24</title>
<ellipse fill="none" stroke="black" stroke-width="5" cx="571.52" cy="-1035.99" rx="18" ry="18"/>
</g>
<!-- 23&#45;&gt;24 -->
<g id="edge23" class="edge">
<title>23&#45;&gt;24</title>
<path fill="none" stroke="#999999" stroke-width="5" d="M565.84,-1074.53C566.81,-1067.95 567.91,-1060.5 568.88,-1053.91"/>
</g>
<!-- 25 -->
<g id="node25" class="node">
<title>25</title>
<ellipse fill="none" stroke="black" stroke-width="5" cx="697.34" cy="-977.25" rx="18" ry="18"/>
</g>
<!-- 24&#45;&gt;25 -->
<g id="edge24" class="edge">
<title>24&#45;&gt;25</title>
<path fill="none" stroke="#999999" stroke-width="5" d="M587.97,-1028.31C612.09,-1017.05 656.77,-996.19 680.89,-984.93"/>
</g>
<!-- 26 -->
<g id="node26" class="node">
<title>26</title>
<ellipse fill="none" stroke="black" stroke-width="5" cx="631.14" cy="-858.42" rx="18" ry="18"/>
</g>
<!-- 25&#45;&gt;26 -->
<g id="edge25" class="edge">
<title>25&#45;&gt;26</title>
<path fill="none" stroke="#999999" stroke-width="5" d="M688.41,-961.22C675.71,-938.42 652.55,-896.86 639.92,-874.19"/>
</g>
<!-- 27 -->
<g id="node27" class="node">
<title>27</title>
<ellipse fill="none" stroke="black" stroke-width="5" cx="557.12" cy="-868.8" rx="18" ry="18"/>
</g>
<!-- 26&#45;&gt;27 -->
<g id="edge26" class="edge">
<title>26&#45;&gt;27</title>
<path fill="none" stroke="#999999" stroke-width="5" d="M613.22,-860.93C601.67,-862.55 586.7,-864.65 575.13,-866.27"/>
</g>
<!-- 28 -->
<g id="node28" class="node">
<title>28</title>
<ellipse fill="none" stroke="black" stroke-width="5" cx="440.54" cy="-979.25" rx="18" ry="18"/>
</g>
<!-- 27&#45;&gt;28 -->
<g id="edge27" class="edge">
<title>27&#45;&gt;28</title>
<path fill="none" stroke="#999999" stroke-width="5" d="M543.75,-881.47C521.26,-902.77 476.14,-945.52 453.76,-966.73"/>
</g>
<!-- 29 -->
<g id="node29" class="node">
<title>29</title>
<ellipse fill="none" stroke="black" stroke-width="5" cx="359.54" cy="-911.96" rx="18" ry="18"/>
</g>
<!-- 28&#45;&gt;29 -->
<g id="edge28" class="edge">
<title>28&#45;&gt;29</title>
<path fill="none" stroke="#999999" stroke-width="5" d="M426.43,-967.53C411.56,-955.18 388.29,-935.84 373.49,-923.55"/>
</g>
<!-- 30 -->
<g id="node30" class="node">
<title>30</title>
<ellipse fill="none" stroke="black" stroke-width="5" cx="196.13" cy="-836.46" rx="18" ry="18"/>
</g>
<!-- 29&#45;&gt;30 -->
<g id="edge29" class="edge">
<title>29&#45;&gt;30</title>
<path fill="none" stroke="#999999" stroke-width="5" d="M342.97,-904.3C311.65,-889.83 244.09,-858.62 212.74,-844.13"/>
</g>
<!-- 31 -->
<g id="node31" class="node">
<title>31</title>
<ellipse fill="none" stroke="black" stroke-width="5" cx="106.28" cy="-863.83" rx="18" ry="18"/>
</g>
<!-- 30&#45;&gt;31 -->
<g id="edge30" class="edge">
<title>30&#45;&gt;31</title>
<path fill="none" stroke="#999999" stroke-width="5" d="M178.8,-841.74C162.89,-846.58 139.44,-853.73 123.55,-858.57"/>
</g>
<!-- 32 -->
<g id="node32" class="node">
<title>32</title>
<ellipse fill="none" stroke="black" stroke-width="5" cx="42.93" cy="-897.67" rx="18" ry="18"/>
</g>
<!-- 31&#45;&gt;32 -->
<g id="edge31" class="edge">
<title>31&#45;&gt;32</title>
<path fill="none" stroke="#999999" stroke-width="5" d="M90.29,-872.37C80.76,-877.46 68.7,-883.91 59.13,-889.02"/>
</g>
<!-- 33 -->
<g id="node33" class="node">
<title>33</title>
<ellipse fill="none" stroke="black" stroke-width="5" cx="18.43" cy="-1060.12" rx="18" ry="18"/>
</g>
<!-- 32&#45;&gt;33 -->
<g id="edge32" class="edge">
<title>32&#45;&gt;33</title>
<path fill="none" stroke="#999999" stroke-width="5" d="M40.22,-915.68C35.51,-946.9 25.88,-1010.75 21.16,-1042.03"/>
</g>
<!-- 34 -->
<g id="node34" class="node">
<title>34</title>
<ellipse fill="none" stroke="black" stroke-width="5" cx="76.85" cy="-1107.8" rx="18" ry="18"/>
</g>
<!-- 33&#45;&gt;34 -->
<g id="edge33" class="edge">
<title>33&#45;&gt;34</title>
<path fill="none" stroke="#999999" stroke-width="5" d="M32.57,-1071.66C41.76,-1079.16 53.68,-1088.89 62.84,-1096.36"/>
</g>
<!-- 35 -->
<g id="node35" class="node">
<title>35</title>
<ellipse fill="none" stroke="black" stroke-width="5" cx="78.5" cy="-1270.49" rx="18" ry="18"/>
</g>
<!-- 34&#45;&gt;35 -->
<g id="edge34" class="edge">
<title>34&#45;&gt;35</title>
<path fill="none" stroke="#999999" stroke-width="5" d="M77.03,-1125.83C77.35,-1157.1 77.99,-1221.05 78.31,-1252.37"/>
</g>
<!-- 36 -->
<g id="node36" class="node">
<title>36</title>
<ellipse fill="none" stroke="black" stroke-width="5" cx="158.78" cy="-1290.16" rx="18" ry="18"/>
</g>
<!-- 35&#45;&gt;36 -->
<g id="edge35" class="edge">
<title>35&#45;&gt;36</title>
<path fill="none" stroke="#999999" stroke-width="5" d="M96.31,-1274.85C109.71,-1278.14 127.97,-1282.61 141.29,-1285.87"/>
</g>
<!-- 37 -->
<g id="node37" class="node">
<title>37</title>
<ellipse fill="none" stroke="black" stroke-width="5" cx="192.64" cy="-1448.88" rx="18" ry="18"/>
</g>
<!-- 36&#45;&gt;37 -->
<g id="edge36" class="edge">
<title>36&#45;&gt;37</title>
<path fill="none" stroke="#999999" stroke-width="5" d="M162.6,-1308.06C169.1,-1338.54 182.26,-1400.2 188.79,-1430.81"/>
</g>
<!-- 38 -->
<g id="node38" class="node">
<title>38</title>
<ellipse fill="none" stroke="black" stroke-width="5" cx="267.79" cy="-1441.69" rx="18" ry="18"/>
</g>
<!-- 37&#45;&gt;38 -->
<g id="edge37" class="edge">
<title>37&#45;&gt;38</title>
<path fill="none" stroke="#999999" stroke-width="5" d="M210.83,-1447.14C222.65,-1446.01 237.99,-1444.54 249.77,-1443.41"/>
</g>
<!-- 39 -->
<g id="node39" class="node">
<title>39</title>
<ellipse fill="none" stroke="black" stroke-width="5" cx="347.07" cy="-1598.61" rx="18" ry="18"/>
</g>
<!-- 38&#45;&gt;39 -->
<g id="edge38" class="edge">
<title>38&#45;&gt;39</title>
<path fill="none" stroke="#999999" stroke-width="5" d="M275.98,-1457.89C291.17,-1487.96 323.57,-1552.08 338.81,-1582.26"/>
</g>
<!-- 40 -->
<g id="node40" class="node">
<title>40</title>
<ellipse fill="none" stroke="black" stroke-width="5" cx="442.06" cy="-1668.22" rx="18" ry="18"/>
</g>
<!-- 39&#45;&gt;40 -->
<g id="edge39" class="edge">
<title>39&#45;&gt;40</title>
<path fill="none" stroke="#999999" stroke-width="5" d="M361.92,-1609.49C379.76,-1622.57 409.52,-1644.38 427.32,-1657.42"/>
</g>
<!-- 41 -->
<g id="node41" class="node">
<title>41</title>
<ellipse fill="none" stroke="black" stroke-width="5" cx="458.17" cy="-1740.49" rx="18" ry="18"/>
</g>
<!-- 40&#45;&gt;41 -->
<g id="edge40" class="edge">
<title>40&#45;&gt;41</title>
<path fill="none" stroke="#999999" stroke-width="5" d="M446.04,-1686.09C448.54,-1697.29 451.74,-1711.67 454.23,-1722.83"/>
</g>
<!-- 42 -->
<g id="node42" class="node">
<title>42</title>
<ellipse fill="none" stroke="black" stroke-width="5" cx="581.4" cy="-1670.75" rx="18" ry="18"/>
</g>
<!-- 41&#45;&gt;42 -->
<g id="edge41" class="edge">
<title>41&#45;&gt;42</title>
<path fill="none" stroke="#999999" stroke-width="5" d="M474.03,-1731.51C497.69,-1718.12 541.98,-1693.06 565.61,-1679.69"/>
</g>
<!-- 43 -->
<g id="node43" class="node">
<title>43</title>
<ellipse fill="none" stroke="black" stroke-width="5" cx="655.97" cy="-1796.37" rx="18" ry="18"/>
</g>
<!-- 42&#45;&gt;43 -->
<g id="edge42" class="edge">
<title>42&#45;&gt;43</title>
<path fill="none" stroke="#999999" stroke-width="5" d="M590.7,-1686.4C604.99,-1710.48 632.2,-1756.33 646.56,-1780.52"/>
</g>
<!-- 44 -->
<g id="node44" class="node">
<title>44</title>
<ellipse fill="none" stroke="black" stroke-width="5" cx="716.43" cy="-1756.39" rx="18" ry="18"/>
</g>
<!-- 43&#45;&gt;44 -->
<g id="edge43" class="edge">
<title>43&#45;&gt;44</title>
<path fill="none" stroke="#999999" stroke-width="5" d="M671.23,-1786.28C680.47,-1780.17 692.19,-1772.42 701.39,-1766.34"/>
</g>
<!-- 45 -->
<g id="node45" class="node">
<title>45</title>
<ellipse fill="none" stroke="black" stroke-width="5" cx="805.24" cy="-1711.66" rx="18" ry="18"/>
</g>
<!-- 44&#45;&gt;45 -->
<g id="edge44" class="edge">
<title>44&#45;&gt;45</title>
<path fill="none" stroke="#999999" stroke-width="5" d="M732.72,-1748.19C748.75,-1740.11 773.07,-1727.86 789.06,-1719.81"/>
</g>
<!-- 46 -->
<g id="node46" class="node">
<title>46</title>
<ellipse fill="none" stroke="black" stroke-width="5" cx="974.9" cy="-1702.5" rx="18" ry="18"/>
</g>
<!-- 45&#45;&gt;46 -->
<g id="edge45" class="edge">
<title>45&#45;&gt;46</title>
<path fill="none" stroke="#999999" stroke-width="5" d="M823.4,-1710.68C856.05,-1708.92 924.31,-1705.23 956.87,-1703.47"/>
</g>
<!-- 47 -->
<g id="node47" class="node">
<title>47</title>
<ellipse fill="none" stroke="black" stroke-width="5" cx="984.72" cy="-1804.24" rx="18" ry="18"/>
</g>
<!-- 46&#45;&gt;47 -->
<g id="edge46" class="edge">
<title>46&#45;&gt;47</title>
<path fill="none" stroke="#999999" stroke-width="5" d="M976.66,-1720.69C978.44,-1739.21 981.2,-1767.75 982.98,-1786.21"/>
</g>
<!-- 48 -->
<g id="node48" class="node">
<title>48</title>
<ellipse fill="none" stroke="black" stroke-width="5" cx="1056.52" cy="-1795.85" rx="18" ry="18"/>
</g>
<!-- 47&#45;&gt;48 -->
<g id="edge47" class="edge">
<title>47&#45;&gt;48</title>
<path fill="none" stroke="#999999" stroke-width="5" d="M1002.84,-1802.12C1013.64,-1800.86 1027.31,-1799.26 1038.16,-1797.99"/>
</g>
<!-- 49 -->
<g id="node49" class="node">
<title>49</title>
<ellipse fill="none" stroke="black" stroke-width="5" cx="1184.87" cy="-1666.38" rx="18" ry="18"/>
</g>
<!-- 48&#45;&gt;49 -->
<g id="edge48" class="edge">
<title>48&#45;&gt;49</title>
<path fill="none" stroke="#999999" stroke-width="5" d="M1069.29,-1782.96C1093.9,-1758.14 1147.58,-1703.99 1172.15,-1679.21"/>
</g>
<!-- 50 -->
<g id="node50" class="node">
<title>50</title>
<ellipse fill="none" stroke="black" stroke-width="5" cx="1247.97" cy="-1621.19" rx="18" ry="18"/>
</g>
<!-- 49&#45;&gt;50 -->
<g id="edge49" class="edge">
<title>49&#45;&gt;50</title>
<path fill="none" stroke="#999999" stroke-width="5" d="M1199.51,-1655.9C1209.55,-1648.7 1222.85,-1639.18 1232.98,-1631.93"/>
</g>
<!-- 51 -->
<g id="node51" class="node">
<title>51</title>
<ellipse fill="none" stroke="black" stroke-width="5" cx="1371.53" cy="-1540.23" rx="18" ry="18"/>
</g>
<!-- 50&#45;&gt;51 -->
<g id="edge50" class="edge">
<title>50&#45;&gt;51</title>
<path fill="none" stroke="#999999" stroke-width="5" d="M1263.12,-1611.26C1286.84,-1595.73 1332.47,-1565.83 1356.26,-1550.24"/>
</g>
<!-- 52 -->
<g id="node52" class="node">
<title>52</title>
<ellipse fill="none" stroke="black" stroke-width="5" cx="1337.98" cy="-1494.58" rx="18" ry="18"/>
</g>
<!-- 51&#45;&gt;52 -->
<g id="edge51" class="edge">
<title>51&#45;&gt;52</title>
<path fill="none" stroke="#999999" stroke-width="5" d="M1360.73,-1525.54C1356.9,-1520.33 1352.59,-1514.46 1348.76,-1509.25"/>
</g>
<!-- 53 -->
<g id="node53" class="node">
<title>53</title>
<ellipse fill="none" stroke="black" stroke-width="5" cx="1335.39" cy="-1280.01" rx="18" ry="18"/>
</g>
<!-- 52&#45;&gt;53 -->
<g id="edge52" class="edge">
<title>52&#45;&gt;53</title>
<path fill="none" stroke="#999999" stroke-width="5" d="M1337.76,-1476.29C1337.27,-1435.75 1336.1,-1338.75 1335.61,-1298.25"/>
</g>
<!-- 54 -->
<g id="node54" class="node">
<title>54</title>
<ellipse fill="none" stroke="black" stroke-width="5" cx="1348.61" cy="-1224.81" rx="18" ry="18"/>
</g>
<!-- 53&#45;&gt;54 -->
<g id="edge53" class="edge">
<title>53&#45;&gt;54</title>
<path fill="none" stroke="#999999" stroke-width="5" d="M1339.64,-1262.24C1341.15,-1255.93 1342.85,-1248.84 1344.36,-1242.54"/>
</g>
<!-- 55 -->
<g id="node55" class="node">
<title>55</title>
<ellipse fill="none" stroke="black" stroke-width="5" cx="1338.29" cy="-1164.82" rx="18" ry="18"/>
</g>
<!-- 54&#45;&gt;55 -->
<g id="edge54" class="edge">
<title>54&#45;&gt;55</title>
<path fill="none" stroke="#999999" stroke-width="5" d="M1345.51,-1206.81C1344.2,-1199.22 1342.69,-1190.4 1341.38,-1182.81"/>
</g>
<!-- 56 -->
<g id="node56" class="node">
<title>56</title>
<ellipse fill="none" stroke="black" stroke-width="5" cx="1212.34" cy="-1251.47" rx="18" ry="18"/>
</g>
<!-- 55&#45;&gt;56 -->
<g id="edge55" class="edge">
<title>55&#45;&gt;56</title>
<path fill="none" stroke="#999999" stroke-width="5" d="M1323.34,-1175.1C1299.11,-1191.78 1251.49,-1224.53 1227.27,-1241.2"/>
</g>
<!-- 57 -->
<g id="node57" class="node">
<title>57</title>
<ellipse fill="none" stroke="black" stroke-width="5" cx="1165.03" cy="-1293.34" rx="18" ry="18"/>
</g>
<!-- 56&#45;&gt;57 -->
<g id="edge56" class="edge">
<title>56&#45;&gt;57</title>
<path fill="none" stroke="#999999" stroke-width="5" d="M1198.66,-1263.58C1192.32,-1269.18 1184.83,-1275.82 1178.52,-1281.4"/>
</g>
<!-- 58 -->
<g id="node58" class="node">
<title>58</title>
<ellipse fill="none" stroke="black" stroke-width="5" cx="978.46" cy="-1212.61" rx="18" ry="18"/>
</g>
<!-- 57&#45;&gt;58 -->
<g id="edge57" class="edge">
<title>57&#45;&gt;58</title>
<path fill="none" stroke="#999999" stroke-width="5" d="M1148.47,-1286.18C1113.16,-1270.9 1030.77,-1235.24 995.25,-1219.87"/>
</g>
<!-- 59 -->
<g id="node59" class="node">
<title>59</title>
<ellipse fill="none" stroke="black" stroke-width="5" cx="915.59" cy="-1175.01" rx="18" ry="18"/>
</g>
<!-- 58&#45;&gt;59 -->
<g id="edge58" class="edge">
<title>58&#45;&gt;59</title>
<path fill="none" stroke="#999999" stroke-width="5" d="M962.92,-1203.31C953.32,-1197.57 941.04,-1190.23 931.39,-1184.46"/>
</g>
<!-- 60 -->
<g id="node60" class="node">
<title>60</title>
<ellipse fill="none" stroke="black" stroke-width="5" cx="961.65" cy="-1065.06" rx="18" ry="18"/>
</g>
<!-- 59&#45;&gt;60 -->
<g id="edge59" class="edge">
<title>59&#45;&gt;60</title>
<path fill="none" stroke="#999999" stroke-width="5" d="M922.59,-1158.31C931.24,-1137.65 945.9,-1102.66 954.59,-1081.92"/>
</g>
<!-- 61 -->
<g id="node61" class="node">
<title>61</title>
<ellipse fill="none" stroke="black" stroke-width="5" cx="1034.2" cy="-1079.01" rx="18" ry="18"/>
</g>
<!-- 60&#45;&gt;61 -->
<g id="edge60" class="edge">
<title>60&#45;&gt;61</title>
<path fill="none" stroke="#999999" stroke-width="5" d="M979.59,-1068.51C990.83,-1070.67 1005.27,-1073.44 1016.47,-1075.6"/>
</g>
<!-- 62 -->
<g id="node62" class="node">
<title>62</title>
<ellipse fill="none" stroke="black" stroke-width="5" cx="1136.89" cy="-976.54" rx="18" ry="18"/>
</g>
<!-- 61&#45;&gt;62 -->
<g id="edge61" class="edge">
<title>61&#45;&gt;62</title>
<path fill="none" stroke="#999999" stroke-width="5" d="M1047.21,-1066.03C1066.96,-1046.32 1104.3,-1009.06 1123.99,-989.41"/>
</g>
<!-- 63 -->
<g id="node63" class="node">
<title>63</title>
<ellipse fill="none" stroke="black" stroke-width="5" cx="1009.4" cy="-893.78" rx="18" ry="18"/>
</g>
<!-- 62&#45;&gt;63 -->
<g id="edge62" class="edge">
<title>62&#45;&gt;63</title>
<path fill="none" stroke="#999999" stroke-width="5" d="M1121.76,-966.72C1097.23,-950.79 1049.03,-919.51 1024.5,-903.59"/>
</g>
<!-- 64 -->
<g id="node64" class="node">
<title>64</title>
<ellipse fill="none" stroke="black" stroke-width="5" cx="979.37" cy="-839.09" rx="18" ry="18"/>
</g>
<!-- 63&#45;&gt;64 -->
<g id="edge63" class="edge">
<title>63&#45;&gt;64</title>
<path fill="none" stroke="#999999" stroke-width="5" d="M1000.71,-877.96C996.76,-870.77 992.1,-862.27 988.14,-855.06"/>
</g>
<!-- 65 -->
<g id="node65" class="node">
<title>65</title>
<ellipse fill="none" stroke="black" stroke-width="5" cx="989.96" cy="-764.34" rx="18" ry="18"/>
</g>
<!-- 64&#45;&gt;65 -->
<g id="edge64" class="edge">
<title>64&#45;&gt;65</title>
<path fill="none" stroke="#999999" stroke-width="5" d="M981.93,-820.99C983.6,-809.24 985.76,-793.99 987.42,-782.27"/>
</g>
<!-- 66 -->
<g id="node66" class="node">
<title>66</title>
<ellipse fill="none" stroke="black" stroke-width="5" cx="1141.92" cy="-799.02" rx="18" ry="18"/>
</g>
<!-- 65&#45;&gt;66 -->
<g id="edge65" class="edge">
<title>65&#45;&gt;66</title>
<path fill="none" stroke="#999999" stroke-width="5" d="M1007.69,-768.39C1036.97,-775.07 1095.1,-788.33 1124.3,-795"/>
</g>
<!-- 67 -->
<g id="node67" class="node">
<title>67</title>
<ellipse fill="none" stroke="black" stroke-width="5" cx="1169.71" cy="-753.99" rx="18" ry="18"/>
</g>
<!-- 66&#45;&gt;67 -->
<g id="edge66" class="edge">
<title>66&#45;&gt;67</title>
<path fill="none" stroke="#999999" stroke-width="5" d="M1151.48,-783.52C1154.31,-778.94 1157.4,-773.93 1160.22,-769.36"/>
</g>
<!-- 68 -->
<g id="node68" class="node">
<title>68</title>
<ellipse fill="none" stroke="black" stroke-width="5" cx="1227.22" cy="-577.94" rx="18" ry="18"/>
</g>
<!-- 67&#45;&gt;68 -->
<g id="edge67" class="edge">
<title>67&#45;&gt;68</title>
<path fill="none" stroke="#999999" stroke-width="5" d="M1175.32,-736.79C1186.32,-703.14 1210.56,-628.93 1221.58,-595.22"/>
</g>
<!-- 69 -->
<g id="node69" class="node">
<title>69</title>
<ellipse fill="none" stroke="black" stroke-width="5" cx="1147.18" cy="-569.97" rx="18" ry="18"/>
</g>
<!-- 68&#45;&gt;69 -->
<g id="edge68" class="edge">
<title>68&#45;&gt;69</title>
<path fill="none" stroke="#999999" stroke-width="5" d="M1209.06,-576.13C1195.96,-574.83 1178.35,-573.07 1165.27,-571.77"/>
</g>
<!-- 70 -->
<g id="node70" class="node">
<title>70</title>
<ellipse fill="none" stroke="black" stroke-width="5" cx="1256.82" cy="-466.33" rx="18" ry="18"/>
</g>
<!-- 69&#45;&gt;70 -->
<g id="edge69" class="edge">
<title>69&#45;&gt;70</title>
<path fill="none" stroke="#999999" stroke-width="5" d="M1160.62,-557.26C1181.78,-537.26 1222.59,-498.68 1243.6,-478.82"/>
</g>
<!-- 71 -->
<g id="node71" class="node">
<title>71</title>
<ellipse fill="none" stroke="black" stroke-width="5" cx="1319.76" cy="-451.15" rx="18" ry="18"/>
</g>
<!-- 70&#45;&gt;71 -->
<g id="edge70" class="edge">
<title>70&#45;&gt;71</title>
<path fill="none" stroke="#999999" stroke-width="5" d="M1274.35,-462.1C1282.94,-460.03 1293.26,-457.54 1301.89,-455.46"/>
</g>
<!-- 72 -->
<g id="node72" class="node">
<title>72</title>
<ellipse fill="none" stroke="black" stroke-width="5" cx="1344.4" cy="-367.07" rx="18" ry="18"/>
</g>
<!-- 71&#45;&gt;72 -->
<g id="edge71" class="edge">
<title>71&#45;&gt;72</title>
<path fill="none" stroke="#999999" stroke-width="5" d="M1324.87,-433.73C1329.1,-419.3 1335.08,-398.9 1339.3,-384.47"/>
</g>
<!-- 73 -->
<g id="node73" class="node">
<title>73</title>
<ellipse fill="none" stroke="black" stroke-width="5" cx="1207.24" cy="-296.13" rx="18" ry="18"/>
</g>
<!-- 72&#45;&gt;73 -->
<g id="edge72" class="edge">
<title>72&#45;&gt;73</title>
<path fill="none" stroke="#999999" stroke-width="5" d="M1328.4,-358.8C1302.11,-345.2 1250.06,-318.28 1223.57,-304.57"/>
</g>
<!-- 74 -->
<g id="node74" class="node">
<title>74</title>
<ellipse fill="none" stroke="black" stroke-width="5" cx="1128.25" cy="-316.33" rx="18" ry="18"/>
</g>
<!-- 73&#45;&gt;74 -->
<g id="edge73" class="edge">
<title>73&#45;&gt;74</title>
<path fill="none" stroke="#999999" stroke-width="5" d="M1189.71,-300.61C1176.62,-303.96 1158.81,-308.51 1145.73,-311.86"/>
</g>
<!-- 75 -->
<g id="node75" class="node">
<title>75</title>
<ellipse fill="none" stroke="black" stroke-width="5" cx="1010.06" cy="-321.88" rx="18" ry="18"/>
</g>
<!-- 74&#45;&gt;75 -->
<g id="edge74" class="edge">
<title>74&#45;&gt;75</title>
<path fill="none" stroke="#999999" stroke-width="5" d="M1110.04,-317.18C1087.77,-318.23 1050.29,-319.99 1028.1,-321.03"/>
</g>
<!-- 76 -->
<g id="node76" class="node">
<title>76</title>
<ellipse fill="none" stroke="black" stroke-width="5" cx="837.04" cy="-276.13" rx="18" ry="18"/>
</g>
<!-- 75&#45;&gt;76 -->
<g id="edge75" class="edge">
<title>75&#45;&gt;76</title>
<path fill="none" stroke="#999999" stroke-width="5" d="M992.52,-317.24C959.36,-308.47 887.83,-289.56 854.63,-280.78"/>
</g>
<!-- 77 -->
<g id="node77" class="node">
<title>77</title>
<ellipse fill="none" stroke="black" stroke-width="5" cx="747.35" cy="-360.27" rx="18" ry="18"/>
</g>
<!-- 76&#45;&gt;77 -->
<g id="edge76" class="edge">
<title>76&#45;&gt;77</title>
<path fill="none" stroke="#999999" stroke-width="5" d="M823.81,-288.54C806.85,-304.45 777.62,-331.87 760.64,-347.81"/>
</g>
<!-- 78 -->
<g id="node78" class="node">
<title>78</title>
<ellipse fill="none" stroke="black" stroke-width="5" cx="587.45" cy="-363.41" rx="18" ry="18"/>
</g>
<!-- 77&#45;&gt;78 -->
<g id="edge77" class="edge">
<title>77&#45;&gt;78</title>
<path fill="none" stroke="#999999" stroke-width="5" d="M729.32,-360.63C698.61,-361.23 636.49,-362.45 605.66,-363.05"/>
</g>
<!-- 79 -->
<g id="node79" class="node">
<title>79</title>
<ellipse fill="none" stroke="black" stroke-width="5" cx="549.32" cy="-443.99" rx="18" ry="18"/>
</g>
<!-- 78&#45;&gt;79 -->
<g id="edge78" class="edge">
<title>78&#45;&gt;79</title>
<path fill="none" stroke="#999999" stroke-width="5" d="M579.73,-379.72C573.12,-393.7 563.64,-413.74 557.02,-427.71"/>
</g>
<!-- 80 -->
<g id="node80" class="node">
<title>80</title>
<ellipse fill="none" stroke="black" stroke-width="5" cx="414.56" cy="-587.38" rx="18" ry="18"/>
</g>
<!-- 79&#45;&gt;80 -->
<g id="edge79" class="edge">
<title>79&#45;&gt;80</title>
<path fill="none" stroke="#999999" stroke-width="5" d="M536.88,-457.23C511.21,-484.54 452.61,-546.89 426.97,-574.18"/>
</g>
<!-- 81 -->
<g id="node81" class="node">
<title>81</title>
<ellipse fill="none" stroke="black" stroke-width="5" cx="345.79" cy="-683.9" rx="18" ry="18"/>
</g>
<!-- 80&#45;&gt;81 -->
<g id="edge80" class="edge">
<title>80&#45;&gt;81</title>
<path fill="none" stroke="#999999" stroke-width="5" d="M403.81,-602.46C390.89,-620.6 369.34,-650.84 356.46,-668.93"/>
</g>
<!-- 82 -->
<g id="node82" class="node">
<title>82</title>
<ellipse fill="none" stroke="black" stroke-width="5" cx="311.59" cy="-742.24" rx="18" ry="18"/>
</g>
<!-- 81&#45;&gt;82 -->
<g id="edge81" class="edge">
<title>81&#45;&gt;82</title>
<path fill="none" stroke="#999999" stroke-width="5" d="M336.62,-699.54C331.72,-707.91 325.69,-718.19 320.78,-726.56"/>
</g>
<!-- 83 -->
<g id="node83" class="node">
<title>83</title>
<ellipse fill="none" stroke="black" stroke-width="5" cx="214.2" cy="-988.27" rx="18" ry="18"/>
</g>
<!-- 82&#45;&gt;83 -->
<g id="edge82" class="edge">
<title>82&#45;&gt;83</title>
<path fill="none" stroke="#999999" stroke-width="5" d="M304.9,-759.15C287.11,-804.1 238.79,-926.16 220.94,-971.24"/>
</g>
<!-- 84 -->
<g id="node84" class="node">
<title>84</title>
<ellipse fill="none" stroke="black" stroke-width="5" cx="271.63" cy="-1094.77" rx="18" ry="18"/>
</g>
<!-- 83&#45;&gt;84 -->
<g id="edge83" class="edge">
<title>83&#45;&gt;84</title>
<path fill="none" stroke="#999999" stroke-width="5" d="M222.92,-1004.44C233.78,-1024.58 252.21,-1058.75 263.01,-1078.79"/>
</g>
<!-- 85 -->
<g id="node85" class="node">
<title>85</title>
<ellipse fill="none" stroke="black" stroke-width="5" cx="274.71" cy="-1221.8" rx="18" ry="18"/>
</g>
<!-- 84&#45;&gt;85 -->
<g id="edge84" class="edge">
<title>84&#45;&gt;85</title>
<path fill="none" stroke="#999999" stroke-width="5" d="M272.07,-1112.97C272.66,-1137.12 273.68,-1179.5 274.27,-1203.64"/>
</g>
<!-- 86 -->
<g id="node86" class="node">
<title>86</title>
<ellipse fill="none" stroke="black" stroke-width="5" cx="389.58" cy="-1373.03" rx="18" ry="18"/>
</g>
<!-- 85&#45;&gt;86 -->
<g id="edge85" class="edge">
<title>85&#45;&gt;86</title>
<path fill="none" stroke="#999999" stroke-width="5" d="M285.72,-1236.3C307.62,-1265.13 356.42,-1329.37 378.43,-1358.35"/>
</g>
<!-- 87 -->
<g id="node87" class="node">
<title>87</title>
<ellipse fill="none" stroke="black" stroke-width="5" cx="430.05" cy="-1437.37" rx="18" ry="18"/>
</g>
<!-- 86&#45;&gt;87 -->
<g id="edge86" class="edge">
<title>86&#45;&gt;87</title>
<path fill="none" stroke="#999999" stroke-width="5" d="M399.17,-1388.27C405.53,-1398.38 413.85,-1411.61 420.25,-1421.79"/>
</g>
<!-- 88 -->
<g id="node88" class="node">
<title>88</title>
<ellipse fill="none" stroke="black" stroke-width="5" cx="630.34" cy="-1431.2" rx="18" ry="18"/>
</g>
<!-- 87&#45;&gt;88 -->
<g id="edge87" class="edge">
<title>87&#45;&gt;88</title>
<path fill="none" stroke="#999999" stroke-width="5" d="M448.18,-1436.81C486.22,-1435.64 573.98,-1432.94 612.11,-1431.77"/>
</g>
<!-- 89 -->
<g id="node89" class="node">
<title>89</title>
<ellipse fill="none" stroke="black" stroke-width="5" cx="702.53" cy="-1448.79" rx="18" ry="18"/>
</g>
<!-- 88&#45;&gt;89 -->
<g id="edge88" class="edge">
<title>88&#45;&gt;89</title>
<path fill="none" stroke="#999999" stroke-width="5" d="M648.19,-1435.55C659.38,-1438.28 673.74,-1441.78 684.89,-1444.5"/>
</g>
<!-- 90 -->
<g id="node90" class="node">
<title>90</title>
<ellipse fill="none" stroke="black" stroke-width="5" cx="868.13" cy="-1411.23" rx="18" ry="18"/>
</g>
<!-- 89&#45;&gt;90 -->
<g id="edge89" class="edge">
<title>89&#45;&gt;90</title>
<path fill="none" stroke="#999999" stroke-width="5" d="M720.26,-1444.77C752.13,-1437.54 818.75,-1422.43 850.53,-1415.22"/>
</g>
<!-- 91 -->
<g id="node91" class="node">
<title>91</title>
<ellipse fill="none" stroke="black" stroke-width="5" cx="933.43" cy="-1398.32" rx="18" ry="18"/>
</g>
<!-- 90&#45;&gt;91 -->
<g id="edge90" class="edge">
<title>90&#45;&gt;91</title>
<path fill="none" stroke="#999999" stroke-width="5" d="M885.97,-1407.7C895.18,-1405.88 906.39,-1403.66 915.6,-1401.84"/>
</g>
<!-- 92 -->
<g id="node92" class="node">
<title>92</title>
<ellipse fill="none" stroke="black" stroke-width="5" cx="1022.59" cy="-1349.61" rx="18" ry="18"/>
</g>
<!-- 91&#45;&gt;92 -->
<g id="edge91" class="edge">
<title>91&#45;&gt;92</title>
<path fill="none" stroke="#999999" stroke-width="5" d="M949.37,-1389.61C965.6,-1380.74 990.61,-1367.08 1006.79,-1358.24"/>
</g>
<!-- 93 -->
<g id="node93" class="node">
<title>93</title>
<ellipse fill="none" stroke="black" stroke-width="5" cx="1132.5" cy="-1159.47" rx="18" ry="18"/>
</g>
<!-- 92&#45;&gt;93 -->
<g id="edge92" class="edge">
<title>92&#45;&gt;93</title>
<path fill="none" stroke="#999999" stroke-width="5" d="M1031.77,-1333.72C1052.51,-1297.84 1102.78,-1210.88 1123.42,-1175.17"/>
</g>
<!-- 94 -->
<g id="node94" class="node">
<title>94</title>
<ellipse fill="none" stroke="black" stroke-width="5" cx="1171.18" cy="-1104.77" rx="18" ry="18"/>
</g>
<!-- 93&#45;&gt;94 -->
<g id="edge93" class="edge">
<title>93&#45;&gt;94</title>
<path fill="none" stroke="#999999" stroke-width="5" d="M1143.07,-1144.52C1148.53,-1136.8 1155.17,-1127.41 1160.62,-1119.7"/>
</g>
<!-- 95 -->
<g id="node95" class="node">
<title>95</title>
<ellipse fill="none" stroke="black" stroke-width="5" cx="1289.04" cy="-967.91" rx="18" ry="18"/>
</g>
<!-- 94&#45;&gt;95 -->
<g id="edge94" class="edge">
<title>94&#45;&gt;95</title>
<path fill="none" stroke="#999999" stroke-width="5" d="M1183.13,-1090.89C1205.72,-1064.66 1254.44,-1008.08 1277.06,-981.82"/>
</g>
<!-- 96 -->
<g id="node96" class="node">
<title>96</title>
<ellipse fill="none" stroke="black" stroke-width="5" cx="1349.97" cy="-938" rx="18" ry="18"/>
</g>
<!-- 95&#45;&gt;96 -->
<g id="edge95" class="edge">
<title>95&#45;&gt;96</title>
<path fill="none" stroke="#999999" stroke-width="5" d="M1305.37,-959.89C1314.11,-955.6 1324.85,-950.33 1333.6,-946.04"/>
</g>
<!-- 97 -->
<g id="node97" class="node">
<title>97</title>
<ellipse fill="none" stroke="black" stroke-width="5" cx="1400.41" cy="-1056.87" rx="18" ry="18"/>
</g>
<!-- 96&#45;&gt;97 -->
<g id="edge96" class="edge">
<title>96&#45;&gt;97</title>
<path fill="none" stroke="#999999" stroke-width="5" d="M1357.09,-954.78C1366.7,-977.43 1383.73,-1017.57 1393.32,-1040.18"/>
</g>
<!-- 98 -->
<g id="node98" class="node">
<title>98</title>
<ellipse fill="none" stroke="black" stroke-width="5" cx="1564.33" cy="-1008.73" rx="18" ry="18"/>
</g>
<!-- 97&#45;&gt;98 -->
<g id="edge97" class="edge">
<title>97&#45;&gt;98</title>
<path fill="none" stroke="#999999" stroke-width="5" d="M1417.95,-1051.72C1449.5,-1042.45 1515.45,-1023.08 1546.91,-1013.85"/>
</g>
<!-- 99 -->
<g id="node99" class="node">
<title>99</title>
<ellipse fill="none" stroke="black" stroke-width="5" cx="1578.58" cy="-1088.57" rx="18" ry="18"/>
</g>
<!-- 98&#45;&gt;99 -->
<g id="edge98" class="edge">
<title>98&#45;&gt;99</title>
<path fill="none" stroke="#999999" stroke-width="5" d="M1567.56,-1026.85C1569.91,-1040 1573.07,-1057.72 1575.41,-1070.8"/>
</g>
<!-- 100 -->
<g id="node100" class="node">
<title>100</title>
<ellipse fill="none" stroke="black" stroke-width="5" cx="1527.22" cy="-1135.44" rx="18" ry="18"/>
</g>
<!-- 99&#45;&gt;100 -->
<g id="edge99" class="edge">
<title>99&#45;&gt;100</title>
<path fill="none" stroke="#999999" stroke-width="5" d="M1565.08,-1100.88C1557.59,-1107.72 1548.3,-1116.2 1540.8,-1123.05"/>
</g>
<!-- 101 -->
<g id="node101" class="node">
<title>101</title>
<ellipse fill="none" stroke="black" stroke-width="5" cx="1522.33" cy="-1296.53" rx="18" ry="18"/>
</g>
<!-- 100&#45;&gt;101 -->
<g id="edge100" class="edge">
<title>100&#45;&gt;101</title>
<path fill="none" stroke="#999999" stroke-width="5" d="M1526.66,-1153.61C1525.72,-1184.55 1523.83,-1247.13 1522.88,-1278.19"/>
</g>
<!-- 102 -->
<g id="node102" class="node">
<title>102</title>
<ellipse fill="none" stroke="black" stroke-width="5" cx="1446.48" cy="-1362.22" rx="18" ry="18"/>
</g>
<!-- 101&#45;&gt;102 -->
<g id="edge101" class="edge">
<title>101&#45;&gt;102</title>
<path fill="none" stroke="#999999" stroke-width="5" d="M1508.41,-1308.58C1494.73,-1320.43 1473.96,-1338.42 1460.31,-1350.24"/>
</g>
<!-- 103 -->
<g id="node103" class="node">
<title>103</title>
<ellipse fill="none" stroke="black" stroke-width="5" cx="1227.58" cy="-1396.26" rx="18" ry="18"/>
</g>
<!-- 102&#45;&gt;103 -->
<g id="edge102" class="edge">
<title>102&#45;&gt;103</title>
<path fill="none" stroke="#999999" stroke-width="5" d="M1428.57,-1365C1387.42,-1371.4 1286.52,-1387.09 1245.43,-1393.48"/>
</g>
<!-- 104 -->
<g id="node104" class="node">
<title>104</title>
<ellipse fill="none" stroke="black" stroke-width="5" cx="1199.89" cy="-1458.15" rx="18" ry="18"/>
</g>
<!-- 103&#45;&gt;104 -->
<g id="edge103" class="edge">
<title>103&#45;&gt;104</title>
<path fill="none" stroke="#999999" stroke-width="5" d="M1220.16,-1412.84C1216.19,-1421.72 1211.31,-1432.63 1207.33,-1441.52"/>
</g>
<!-- 105 -->
<g id="node105" class="node">
<title>105</title>
<ellipse fill="none" stroke="black" stroke-width="5" cx="1029.68" cy="-1510.46" rx="18" ry="18"/>
</g>
<!-- 104&#45;&gt;105 -->
<g id="edge104" class="edge">
<title>104&#45;&gt;105</title>
<path fill="none" stroke="#999999" stroke-width="5" d="M1182.64,-1463.45C1150.01,-1473.48 1079.65,-1495.11 1046.99,-1505.14"/>
</g>
<!-- 106 -->
<g id="node106" class="node">
<title>106</title>
<ellipse fill="none" stroke="black" stroke-width="5" cx="958.7" cy="-1545.11" rx="18" ry="18"/>
</g>
<!-- 105&#45;&gt;106 -->
<g id="edge105" class="edge">
<title>105&#45;&gt;106</title>
<path fill="none" stroke="#999999" stroke-width="5" d="M1013.22,-1518.5C1001.75,-1524.1 986.52,-1531.53 975.07,-1537.12"/>
</g>
<!-- 107 -->
<g id="node107" class="node">
<title>107</title>
<ellipse fill="none" stroke="black" stroke-width="5" cx="791.61" cy="-1567.53" rx="18" ry="18"/>
</g>
<!-- 106&#45;&gt;107 -->
<g id="edge106" class="edge">
<title>106&#45;&gt;107</title>
<path fill="none" stroke="#999999" stroke-width="5" d="M940.82,-1547.51C908.74,-1551.82 841.78,-1560.8 809.61,-1565.12"/>
</g>
<!-- 108 -->
<g id="node108" class="node">
<title>108</title>
<ellipse fill="none" stroke="black" stroke-width="5" cx="694.3" cy="-1556.39" rx="18" ry="18"/>
</g>
<!-- 107&#45;&gt;108 -->
<g id="edge107" class="edge">
<title>107&#45;&gt;108</title>
<path fill="none" stroke="#999999" stroke-width="5" d="M773.3,-1565.44C755.8,-1563.43 729.56,-1560.43 712.19,-1558.44"/>
</g>
<!-- 109 -->
<g id="node109" class="node">
<title>109</title>
<ellipse fill="none" stroke="black" stroke-width="5" cx="614.06" cy="-1540.72" rx="18" ry="18"/>
</g>
<!-- 108&#45;&gt;109 -->
<g id="edge108" class="edge">
<title>108&#45;&gt;109</title>
<path fill="none" stroke="#999999" stroke-width="5" d="M676.49,-1552.91C663.19,-1550.32 645.1,-1546.78 631.82,-1544.19"/>
</g>
<!-- 110 -->
<g id="node110" class="node">
<title>110</title>
<ellipse fill="none" stroke="black" stroke-width="5" cx="515.34" cy="-1328.16" rx="18" ry="18"/>
</g>
<!-- 109&#45;&gt;110 -->
<g id="edge109" class="edge">
<title>109&#45;&gt;110</title>
<path fill="none" stroke="#999999" stroke-width="5" d="M606.48,-1524.39C588.1,-1484.82 541.35,-1384.16 522.95,-1344.54"/>
</g>
<!-- 111 -->
<g id="node111" class="node">
<title>111</title>
<ellipse fill="none" stroke="black" stroke-width="5" cx="467.37" cy="-1261.72" rx="18" ry="18"/>
</g>
<!-- 110&#45;&gt;111 -->
<g id="edge110" class="edge">
<title>110&#45;&gt;111</title>
<path fill="none" stroke="#999999" stroke-width="5" d="M504.69,-1313.41C496.74,-1302.4 485.93,-1287.43 477.98,-1276.43"/>
</g>
<!-- 112 -->
<g id="node112" class="node">
<title>112</title>
<ellipse fill="none" stroke="black" stroke-width="5" cx="396.35" cy="-1101.15" rx="18" ry="18"/>
</g>
<!-- 111&#45;&gt;112 -->
<g id="edge111" class="edge">
<title>111&#45;&gt;112</title>
<path fill="none" stroke="#999999" stroke-width="5" d="M460.03,-1245.14C446.43,-1214.37 417.41,-1148.76 403.75,-1117.88"/>
</g>
<!-- 113 -->
<g id="node113" class="node">
<title>113</title>
<ellipse fill="none" stroke="black" stroke-width="5" cx="377.17" cy="-1031.67" rx="18" ry="18"/>
</g>
<!-- 112&#45;&gt;113 -->
<g id="edge112" class="edge">
<title>112&#45;&gt;113</title>
<path fill="none" stroke="#999999" stroke-width="5" d="M391.51,-1083.62C388.63,-1073.16 384.97,-1059.93 382.08,-1049.44"/>
</g>
<!-- 114 -->
<g id="node114" class="node">
<title>114</title>
<ellipse fill="none" stroke="black" stroke-width="5" cx="408.02" cy="-840.42" rx="18" ry="18"/>
</g>
<!-- 113&#45;&gt;114 -->
<g id="edge113" class="edge">
<title>113&#45;&gt;114</title>
<path fill="none" stroke="#999999" stroke-width="5" d="M380.07,-1013.68C385.97,-977.13 399.28,-894.61 405.15,-858.23"/>
</g>
<!-- 115 -->
<g id="node115" class="node">
<title>115</title>
<ellipse fill="none" stroke="black" stroke-width="5" cx="446.06" cy="-775.01" rx="18" ry="18"/>
</g>
<!-- 114&#45;&gt;115 -->
<g id="edge114" class="edge">
<title>114&#45;&gt;115</title>
<path fill="none" stroke="#999999" stroke-width="5" d="M417.23,-824.59C423.21,-814.3 430.97,-800.95 436.94,-790.7"/>
</g>
<!-- 116 -->
<g id="node116" class="node">
<title>116</title>
<ellipse fill="none" stroke="black" stroke-width="5" cx="619.31" cy="-762.35" rx="18" ry="18"/>
</g>
<!-- 115&#45;&gt;116 -->
<g id="edge115" class="edge">
<title>115&#45;&gt;116</title>
<path fill="none" stroke="#999999" stroke-width="5" d="M464.27,-773.68C497.63,-771.24 568.16,-766.09 601.34,-763.67"/>
</g>
<!-- 117 -->
<g id="node117" class="node">
<title>117</title>
<ellipse fill="none" stroke="black" stroke-width="5" cx="713.23" cy="-742.31" rx="18" ry="18"/>
</g>
<!-- 116&#45;&gt;117 -->
<g id="edge116" class="edge">
<title>116&#45;&gt;117</title>
<path fill="none" stroke="#999999" stroke-width="5" d="M636.98,-758.58C653.66,-755.02 678.56,-749.71 695.32,-746.13"/>
</g>
<!-- 118 -->
<g id="node118" class="node">
<title>118</title>
<ellipse fill="none" stroke="black" stroke-width="5" cx="853.76" cy="-685.68" rx="18" ry="18"/>
</g>
<!-- 117&#45;&gt;118 -->
<g id="edge117" class="edge">
<title>117&#45;&gt;118</title>
<path fill="none" stroke="#999999" stroke-width="5" d="M731.42,-741.03C743.52,-739.9 759.69,-737.82 773.59,-734.14 799.22,-727.36 824.71,-709.56 839.85,-697.53"/>
</g>
<!-- 119 -->
<g id="node119" class="node">
<title>119</title>
<ellipse fill="none" stroke="black" stroke-width="5" cx="1014.04" cy="-622.88" rx="18" ry="18"/>
</g>
<!-- 118&#45;&gt;119 -->
<g id="edge118" class="edge">
<title>118&#45;&gt;119</title>
<path fill="none" stroke="#999999" stroke-width="5" d="M870.61,-679.07C901.31,-667.05 966.04,-641.69 996.93,-629.59"/>
</g>
<!-- 120 -->
<g id="node120" class="node">
<title>120</title>
<ellipse fill="none" stroke="black" stroke-width="5" cx="1074.49" cy="-657.17" rx="18" ry="18"/>
</g>
<!-- 119&#45;&gt;120 -->
<g id="edge119" class="edge">
<title>119&#45;&gt;120</title>
<path fill="none" stroke="#999999" stroke-width="5" d="M1029.92,-631.89C1038.74,-636.89 1049.67,-643.09 1058.5,-648.1"/>
</g>
<!-- 121 -->
<g id="node121" class="node">
<title>121</title>
<ellipse fill="none" stroke="black" stroke-width="5" cx="1288.83" cy="-722.47" rx="18" ry="18"/>
</g>
<!-- 120&#45;&gt;121 -->
<g id="edge120" class="edge">
<title>120&#45;&gt;121</title>
<path fill="none" stroke="#999999" stroke-width="5" d="M1092.03,-662.51C1132.32,-674.79 1231.11,-704.89 1271.34,-717.15"/>
</g>
<!-- 122 -->
<g id="node122" class="node">
<title>122</title>
<ellipse fill="none" stroke="black" stroke-width="5" cx="1324.46" cy="-776.02" rx="18" ry="18"/>
</g>
<!-- 121&#45;&gt;122 -->
<g id="edge121" class="edge">
<title>121&#45;&gt;122</title>
<path fill="none" stroke="#999999" stroke-width="5" d="M1298.94,-737.67C1303.8,-744.97 1309.6,-753.69 1314.44,-760.97"/>
</g>
<!-- 123 -->
<g id="node123" class="node">
<title>123</title>
<ellipse fill="none" stroke="black" stroke-width="5" cx="1393.64" cy="-766.35" rx="18" ry="18"/>
</g>
<!-- 122&#45;&gt;123 -->
<g id="edge122" class="edge">
<title>122&#45;&gt;123</title>
<path fill="none" stroke="#999999" stroke-width="5" d="M1342.64,-773.48C1352.72,-772.07 1365.24,-770.32 1375.34,-768.91"/>
</g>
<!-- 124 -->
<g id="node124" class="node">
<title>124</title>
<ellipse fill="none" stroke="black" stroke-width="5" cx="1421.83" cy="-673.96" rx="18" ry="18"/>
</g>
<!-- 123&#45;&gt;124 -->
<g id="edge123" class="edge">
<title>123&#45;&gt;124</title>
<path fill="none" stroke="#999999" stroke-width="5" d="M1398.94,-748.97C1403.98,-732.45 1411.52,-707.75 1416.55,-691.26"/>
</g>
<!-- 125 -->
<g id="node125" class="node">
<title>125</title>
<polygon fill="none" stroke="black" stroke-width="5" points="1605.15,-619.65 1584.52,-619.65 1578.15,-639.4 1571.78,-619.65 1551.15,-619.65 1567.84,-607.44 1561.46,-587.69 1578.15,-599.9 1594.84,-587.69 1588.46,-607.44 1605.15,-619.65"/>
</g>
<!-- 124&#45;&gt;125 -->
<g id="edge124" class="edge">
<title>124&#45;&gt;125</title>
<path fill="none" stroke="#999999" stroke-width="5" d="M1438.85,-667.38C1469.24,-655.63 1532.4,-631.23 1562.08,-619.76"/>
</g>
</g>
</svg>
