<?xml version="1.0" encoding="UTF-8" standalone="no"?>
<!DOCTYPE svg PUBLIC "-//W3C//DTD SVG 1.1//EN"
 "http://www.w3.org/Graphics/SVG/1.1/DTD/svg11.dtd">
<!-- Generated by graphviz version 2.42.4 (0)
 -->
<!-- Title: G Pages: 1 -->
<svg width="446pt" height="268pt"
 viewBox="0.00 0.00 446.00 268.00" xmlns="http://www.w3.org/2000/svg" xmlns:xlink="http://www.w3.org/1999/xlink">
<g id="graph0" class="graph" transform="scale(1 1) rotate(0) translate(4 264)">
<title>G</title>
<polygon fill="white" stroke="transparent" points="-4,4 -4,-264 442,-264 442,4 -4,4"/>
<!-- BI -->
<g id="node1" class="node">
<title>BI</title>
<text text-anchor="middle" x="226" y="-244.8" font-family="Times,serif" font-size="14.00">PART ONE:</text>
<text text-anchor="middle" x="226" y="-229.8" font-family="Times,serif" font-size="14.00">INITIATION</text>
</g>
<!-- BIAI -->
<g id="node2" class="node">
<title>BIAI</title>
<text text-anchor="middle" x="50" y="-22.8" font-family="Times,serif" font-size="14.00">ACT I:</text>
<text text-anchor="middle" x="50" y="-7.8" font-family="Times,serif" font-size="14.00">INITIATION</text>
</g>
<!-- BI&#45;&gt;BIAI -->
<g id="edge1" class="edge">
<title>BI&#45;&gt;BIAI</title>
<path fill="none" stroke="#999999" d="M191.12,-221.84C154.21,-200.68 97.34,-162.12 68,-112 54.52,-88.97 50.92,-57.69 50.08,-38.18"/>
</g>
<!-- BIAII -->
<g id="node3" class="node">
<title>BIAII</title>
<text text-anchor="middle" x="152" y="-96.8" font-family="Times,serif" font-size="14.00">ACT II:</text>
<text text-anchor="middle" x="152" y="-81.8" font-family="Times,serif" font-size="14.00">CONFRONTATION</text>
</g>
<!-- BI&#45;&gt;BIAII -->
<g id="edge2" class="edge">
<title>BI&#45;&gt;BIAII</title>
<path fill="none" stroke="#999999" d="M202.38,-221.81C191.56,-212.28 179.5,-199.73 172,-186 159.23,-162.62 154.62,-131.71 152.95,-112.34"/>
</g>
<!-- BIAIII -->
<g id="node4" class="node">
<title>BIAIII</title>
<text text-anchor="middle" x="226" y="-170.8" font-family="Times,serif" font-size="14.00">ACT III:</text>
<text text-anchor="middle" x="226" y="-155.8" font-family="Times,serif" font-size="14.00">TURNING</text>
</g>
<!-- BI&#45;&gt;BIAIII -->
<g id="edge3" class="edge">
<title>BI&#45;&gt;BIAIII</title>
<path fill="none" stroke="#999999" d="M226,-221.83C226,-211 226,-197.29 226,-186.41"/>
</g>
<!-- BIAIV -->
<g id="node5" class="node">
<title>BIAIV</title>
<text text-anchor="middle" x="300" y="-96.8" font-family="Times,serif" font-size="14.00">ACT IV:</text>
<text text-anchor="middle" x="300" y="-81.8" font-family="Times,serif" font-size="14.00">RECKONING</text>
</g>
<!-- BI&#45;&gt;BIAIV -->
<g id="edge4" class="edge">
<title>BI&#45;&gt;BIAIV</title>
<path fill="none" stroke="#999999" d="M248.85,-221.94C259.52,-212.35 271.5,-199.72 279,-186 291.81,-162.57 296.82,-131.68 298.77,-112.33"/>
</g>
<!-- BIAV -->
<g id="node6" class="node">
<title>BIAV</title>
<text text-anchor="middle" x="383" y="-22.8" font-family="Times,serif" font-size="14.00">ACT V:</text>
<text text-anchor="middle" x="383" y="-7.8" font-family="Times,serif" font-size="14.00">AFTERMATH</text>
</g>
<!-- BI&#45;&gt;BIAV -->
<g id="edge5" class="edge">
<title>BI&#45;&gt;BIAV</title>
<path fill="none" stroke="#999999" d="M255.98,-221.9C288.79,-200.26 339.93,-160.79 364,-112 375.76,-88.16 380.25,-57.38 381.96,-38.16"/>
</g>
</g>
</svg>
