<?xml version="1.0" encoding="UTF-8" standalone="no"?>
<!DOCTYPE svg PUBLIC "-//W3C//DTD SVG 1.1//EN"
 "http://www.w3.org/Graphics/SVG/1.1/DTD/svg11.dtd">
<!-- Generated by graphviz version 2.42.4 (0)
 -->
<!-- Title: G Pages: 1 -->
<svg width="470pt" height="266pt"
 viewBox="0.00 0.00 470.00 266.00" xmlns="http://www.w3.org/2000/svg" xmlns:xlink="http://www.w3.org/1999/xlink">
<g id="graph0" class="graph" transform="scale(1 1) rotate(0) translate(4 262)">
<title>G</title>
<polygon fill="white" stroke="transparent" points="-4,4 -4,-262 466,-262 466,4 -4,4"/>
<!-- manuscript -->
<g id="node1" class="node">
<title>manuscript</title>
<text text-anchor="middle" x="238" y="-236.3" font-family="Times,serif" font-size="14.00">Story</text>
</g>
<!-- BI -->
<g id="node2" class="node">
<title>BI</title>
<text text-anchor="middle" x="50" y="-22.8" font-family="Times,serif" font-size="14.00">PART ONE:</text>
<text text-anchor="middle" x="50" y="-7.8" font-family="Times,serif" font-size="14.00">INITIATION</text>
</g>
<!-- manuscript&#45;&gt;BI -->
<g id="edge1" class="edge">
<title>manuscript&#45;&gt;BI</title>
<path fill="none" stroke="#999999" d="M209.78,-226.76C170.67,-208.16 101.06,-168.85 68,-112 54.58,-88.93 50.97,-57.66 50.1,-38.17"/>
</g>
<!-- BII -->
<g id="node3" class="node">
<title>BII</title>
<text text-anchor="middle" x="152" y="-96.8" font-family="Times,serif" font-size="14.00">PART TWO:</text>
<text text-anchor="middle" x="152" y="-81.8" font-family="Times,serif" font-size="14.00">CONFRONTATION</text>
</g>
<!-- manuscript&#45;&gt;BII -->
<g id="edge2" class="edge">
<title>manuscript&#45;&gt;BII</title>
<path fill="none" stroke="#999999" d="M209.95,-223.3C196.16,-214.16 180.5,-201.4 171,-186 156.96,-163.23 153.11,-131.88 152.16,-112.28"/>
</g>
<!-- BIII -->
<g id="node4" class="node">
<title>BIII</title>
<text text-anchor="middle" x="238" y="-170.8" font-family="Times,serif" font-size="14.00">PART THREE:</text>
<text text-anchor="middle" x="238" y="-155.8" font-family="Times,serif" font-size="14.00">TURNING</text>
</g>
<!-- manuscript&#45;&gt;BIII -->
<g id="edge3" class="edge">
<title>manuscript&#45;&gt;BIII</title>
<path fill="none" stroke="#999999" d="M238,-221.81C238,-210.98 238,-197.01 238,-186.02"/>
</g>
<!-- BIV -->
<g id="node5" class="node">
<title>BIV</title>
<text text-anchor="middle" x="324" y="-96.8" font-family="Times,serif" font-size="14.00">PART FOUR:</text>
<text text-anchor="middle" x="324" y="-81.8" font-family="Times,serif" font-size="14.00">RECKONING</text>
</g>
<!-- manuscript&#45;&gt;BIV -->
<g id="edge4" class="edge">
<title>manuscript&#45;&gt;BIV</title>
<path fill="none" stroke="#999999" d="M266.05,-223.3C279.84,-214.16 295.5,-201.4 305,-186 319.04,-163.23 322.89,-131.88 323.84,-112.28"/>
</g>
<!-- BV -->
<g id="node6" class="node">
<title>BV</title>
<text text-anchor="middle" x="407" y="-22.8" font-family="Times,serif" font-size="14.00">PART FIVE:</text>
<text text-anchor="middle" x="407" y="-7.8" font-family="Times,serif" font-size="14.00">AFTERMATH</text>
</g>
<!-- manuscript&#45;&gt;BV -->
<g id="edge5" class="edge">
<title>manuscript&#45;&gt;BV</title>
<path fill="none" stroke="#999999" d="M266.13,-225.16C284.23,-215.54 307.71,-201.65 326,-186 358.6,-158.11 369.32,-150.63 388,-112 399.58,-88.07 404.11,-57.31 405.88,-38.13"/>
</g>
</g>
</svg>
